<svg xmlns="http://www.w3.org/2000/svg" viewBox="0 0 926.34 400.54"><defs><style>.cls-1{fill:#fff;fill-rule:evenodd;}</style></defs><g id="Layer_2" data-name="Layer 2"><g id="Layer_1-2" data-name="Layer 1"><polygon class="cls-1" points="11.52 99.39 6.39 109.73 0 100.11 11.52 99.39"/><path class="cls-1" d="M28.43,110.9l-.64,1.89c-4.09-1.38-7.93-2.8-11.52-4.22l.74-1.86Q22.33,108.83,28.43,110.9Z"/><path class="cls-1" d="M51.82,117.74l-.48,1.94c-4.11-1-8.07-2.1-11.86-3.2l.56-1.92Q45.7,116.21,51.82,117.74Z"/><path class="cls-1" d="M75.64,122.78l-.35,2q-6.2-1.08-12.05-2.32l.41-2C67.54,121.29,71.53,122.07,75.64,122.78Z"/><path class="cls-1" d="M99.74,126.17l-.21,2c-4.14-.44-8.2-1-12.17-1.5l.28-2Q93.57,125.51,99.74,126.17Z"/><path class="cls-1" d="M124,128l-.08,2q-6.21-.25-12.21-.69l.14-2C115.86,127.55,119.9,127.79,124,128Z"/><path class="cls-1" d="M148.43,130.16q-6.19.15-12.25.09v-2q6,.06,12.19-.09Z"/><path class="cls-1" d="M172.88,128.78q-6.16.56-12.2.89l-.12-2q6-.35,12.14-.88Z"/><path class="cls-1" d="M197.17,125.83q-6.1.94-12.13,1.67l-.24-2q6-.73,12.07-1.66Z"/><path class="cls-1" d="M221.23,121.31c-4,.9-8,1.71-12,2.46l-.37-2q5.92-1.11,11.93-2.44Z"/><path class="cls-1" d="M245,115.25Q239,117,233.14,118.47l-.49-1.93q5.83-1.5,11.75-3.21Z"/><path class="cls-1" d="M268.23,107.69q-5.81,2.09-11.58,4l-.61-1.9q5.73-1.86,11.52-4Z"/><path class="cls-1" d="M291,98.7,285.38,101q-2.85,1.18-5.7,2.31l-.73-1.86c1.88-.75,3.77-1.51,5.67-2.3l5.61-2.33Z"/><path class="cls-1" d="M313.57,89.29l-6.95,2.9L302.29,94l-.77-1.84,4.37-1.82,6.91-2.89Z"/><path class="cls-1" d="M336.13,79.91l-11.29,4.68-.77-1.84q5.63-2.34,11.29-4.69Z"/><path class="cls-1" d="M358.74,70.65q-5.67,2.31-11.3,4.61l-.76-1.85Q352.31,71.1,358,68.8Z"/><path class="cls-1" d="M381.44,61.61q-5.7,2.23-11.37,4.49l-.74-1.85Q375,62,380.71,59.75Z"/><path class="cls-1" d="M404.24,52.87Q398.51,55,392.83,57.2l-.72-1.87q5.7-2.19,11.43-4.34Z"/><path class="cls-1" d="M427.19,44.5q-5.76,2-11.5,4.13L415,46.75q5.75-2.09,11.51-4.14Z"/><path class="cls-1" d="M450.29,36.6q-5.81,1.92-11.57,3.89l-.65-1.89q5.78-2,11.6-3.9Z"/><path class="cls-1" d="M473.57,29.26q-5.83,1.75-11.66,3.6l-.6-1.91q5.83-1.85,11.69-3.6Z"/><path class="cls-1" d="M497.05,22.57q-5.9,1.59-11.76,3.26l-.55-1.92q5.88-1.68,11.79-3.27Z"/><path class="cls-1" d="M520.72,16.63Q514.78,18,508.86,19.5l-.49-1.94q5.94-1.5,11.9-2.88Z"/><path class="cls-1" d="M544.58,11.54q-6,1.16-12,2.43l-.42-2q6-1.28,12-2.43Z"/><path class="cls-1" d="M568.63,7.42q-6,.9-12,1.93l-.34-2q6-1,12.09-1.94Z"/><path class="cls-1" d="M592.82,4.38q-6.06.62-12.11,1.38l-.25-2q6.07-.77,12.16-1.38Z"/><path class="cls-1" d="M617.14,2.54q-6.09.3-12.17.76l-.15-2Q610.92.85,617,.54Z"/><path class="cls-1" d="M641.52,0V2q-6.09,0-12.19.09l0-2Q635.4,0,641.52,0Z"/><path class="cls-1" d="M666,.91l-.14,2q-6.09-.4-12.18-.63l.08-2Q659.88.5,666,.91Z"/><path class="cls-1" d="M690.37,3.32l-.26,2q-6-.8-12.1-1.39l.2-2Q684.29,2.52,690.37,3.32Z"/><path class="cls-1" d="M714.54,7.32l-.39,2q-6-1.2-12-2.19l.33-2Q708.53,6.13,714.54,7.32Z"/><path class="cls-1" d="M738.4,13l-.53,1.93q-5.91-1.61-11.82-3l.46-2Q732.45,11.34,738.4,13Z"/><path class="cls-1" d="M761.78,20.21l-.66,1.89q-5.77-2-11.56-3.81l.59-1.91Q756,18.18,761.78,20.21Z"/><path class="cls-1" d="M784.63,29.08l-.79,1.84q-5.62-2.42-11.27-4.6l.72-1.87Q779,26.66,784.63,29.08Z"/><path class="cls-1" d="M806.83,39.49l-.91,1.78q-5.49-2.81-11-5.38l.85-1.81Q801.31,36.68,806.83,39.49Z"/><path class="cls-1" d="M828.38,51.43l-1,1.71Q824.72,51.54,822,50c-1.78-1-3.57-2-5.35-3l1-1.75q2.7,1.48,5.39,3T828.38,51.43Z"/><path class="cls-1" d="M848.67,65.41,847.44,67q-4.74-3.69-9.85-7.21l1.13-1.65Q843.88,61.69,848.67,65.41Z"/><path class="cls-1" d="M867.24,81.77l-1.41,1.41q-4.29-4.28-8.94-8.38l1.32-1.5C861.35,76.06,864.35,78.88,867.24,81.77Z"/><path class="cls-1" d="M883.56,100.32,882,101.54q-3.71-4.8-7.78-9.44l1.5-1.32Q879.83,95.48,883.56,100.32Z"/><path class="cls-1" d="M897.32,120.85l-1.73,1c-2-3.5-4.19-7-6.48-10.37l1.67-1.12Q894.23,115.54,897.32,120.85Z"/><path class="cls-1" d="M908.33,143l-1.85.78q-2.37-5.62-5.1-11.12l1.79-.89Q905.93,137.29,908.33,143Z"/><path class="cls-1" d="M916.57,166.26l-1.92.56q-1.71-5.88-3.75-11.66l1.89-.67Q914.85,160.32,916.57,166.26Z"/><path class="cls-1" d="M922.17,190.31l-2,.35q-1.08-6-2.46-12l2-.45Q921.09,184.24,922.17,190.31Z"/><path class="cls-1" d="M925.35,214.8l-2,.16q-.5-6.11-1.28-12.19l2-.25Q924.85,208.64,925.35,214.8Z"/><path class="cls-1" d="M926.34,239.46h-2c0-4.08-.07-8.17-.24-12.26l2-.08C926.27,231.24,926.34,235.35,926.34,239.46Z"/><path class="cls-1" d="M926.09,251.8q-.24,6.18-.71,12.32l-2-.16q.47-6.09.71-12.24Z"/><path class="cls-1" d="M924.23,276.4q-.69,6.17-1.56,12.24l-2-.29q.87-6,1.55-12.17Z"/><path class="cls-1" d="M920.71,300.82q-1.08,6.12-2.34,12.11l-2-.41q1.25-6,2.33-12Z"/><path class="cls-1" d="M915.67,325c-1,4-2,8-3.06,11.95l-1.93-.53q1.59-5.85,3-11.89Z"/><path class="cls-1" d="M909.2,348.78q-1.83,6-3.77,11.75l-1.89-.64c1.28-3.8,2.53-7.71,3.74-11.69Z"/><path class="cls-1" d="M901.33,372.15q-2.21,5.93-4.47,11.47l-1.85-.76q2.25-5.5,4.44-11.4Z"/><path class="cls-1" d="M892,395q-1.28,2.85-2.57,5.55l-1.8-.86q1.27-2.67,2.55-5.51Z"/></g></g></svg>