<svg width="940" height="353" viewBox="0 0 940 353" fill="none" xmlns="http://www.w3.org/2000/svg">
<path d="M687.052 255.62C690.159 258.287 693.282 260.88 696.422 263.4L695.172 265C692.012 262.46 688.872 259.85 685.752 257.17L687.052 255.62Z" fill="white"/>
<path d="M726.003 284.89C729.423 287.14 732.863 289.31 736.293 291.41L735.293 293.12C731.766 291.04 728.286 288.853 724.853 286.56L726.003 284.89Z" fill="white"/>
<path d="M813.373 327.29C817.279 328.59 821.146 329.81 824.973 330.95L824.403 332.87C820.563 331.723 816.676 330.493 812.743 329.18L813.373 327.29Z" fill="white"/>
<path d="M790.522 318.83C794.336 320.377 798.122 321.847 801.882 323.24L801.192 325.12C797.412 323.72 793.606 322.24 789.772 320.68L790.522 318.83Z" fill="white"/>
<path d="M746.733 297.59C750.293 299.59 753.863 301.59 757.413 303.43L756.483 305.2C752.909 303.32 749.329 301.363 745.743 299.33L746.733 297.59Z" fill="white"/>
<path d="M884.492 343.38C888.672 343.873 892.722 344.273 896.642 344.58L896.482 346.58C892.542 346.273 888.466 345.87 884.252 345.37L884.492 343.38Z" fill="white"/>
<path d="M860.443 339.63C864.529 340.423 868.529 341.12 872.443 341.72L872.133 343.72C868.193 343.107 864.162 342.407 860.042 341.62L860.443 339.63Z" fill="white"/>
<path d="M939.203 345.29L929.813 352.02L928.683 340.52L939.203 345.29Z" fill="white"/>
<path d="M633.513 205.61C636.506 208.41 639.473 211.203 642.413 213.99L641.003 215.45L632.103 207.06L633.513 205.61Z" fill="white"/>
<path d="M673.453 243.37C674.946 244.783 676.443 246.173 677.943 247.54L676.593 249C675.086 247.62 673.583 246.223 672.083 244.81L667.663 240.63L669.003 239.2L673.453 243.37Z" fill="white"/>
<path d="M768.282 308.91C771.976 310.697 775.642 312.41 779.282 314.05L778.472 315.87C774.779 314.23 771.082 312.51 767.382 310.71L768.282 308.91Z" fill="white"/>
<path d="M836.703 334.24C840.703 335.293 844.653 336.26 848.553 337.14L848.103 339.09C844.196 338.203 840.229 337.23 836.203 336.17L836.703 334.24Z" fill="white"/>
<path d="M921.003 345.43V347.43C917.143 347.48 913.003 347.43 908.743 347.28L908.813 345.28C913.073 345.44 917.133 345.48 921.003 345.43Z" fill="white"/>
<path d="M706.003 270.88C709.269 273.34 712.553 275.727 715.853 278.04L714.703 279.68C711.369 277.353 708.069 274.95 704.803 272.47L706.003 270.88Z" fill="white"/>
<path d="M651.282 222.38L660.152 230.79L658.772 232.24L649.902 223.84L651.282 222.38Z" fill="white"/>
<path d="M624.593 197.24L623.222 198.7C620.262 195.933 617.286 193.16 614.292 190.38L615.653 188.91C618.646 191.69 621.626 194.467 624.593 197.24Z" fill="white"/>
<path d="M304.163 4.83997C308.163 5.50997 312.163 6.25997 316.163 7.05997L315.763 9.05997C311.763 8.25997 307.763 7.5233 303.763 6.84997L304.163 4.83997Z" fill="white"/>
<path d="M597.633 172.39C600.633 175.13 603.633 177.88 606.633 180.63L605.283 182.1C602.296 179.353 599.296 176.61 596.283 173.87L597.633 172.39Z" fill="white"/>
<path d="M522.852 109.32C526.092 111.813 529.309 114.32 532.502 116.84L531.262 118.41C528.076 115.89 524.866 113.39 521.632 110.91L522.852 109.32Z" fill="white"/>
<path d="M351.812 16.08C355.726 17.2733 359.616 18.5233 363.482 19.83L362.832 21.73C358.992 20.3966 355.126 19.15 351.232 17.99L351.812 16.08Z" fill="white"/>
<path d="M375.003 23.9301C378.823 25.3567 382.626 26.8367 386.413 28.3701L385.663 30.2201C381.903 28.7001 378.113 27.2201 374.303 25.8101L375.003 23.9301Z" fill="white"/>
<path d="M560.883 140.1C563.996 142.767 567.093 145.433 570.173 148.1L568.873 149.61C565.793 146.943 562.699 144.297 559.593 141.67L560.883 140.1Z" fill="white"/>
<path d="M542.053 124.49C545.226 127.063 548.379 129.647 551.513 132.24L550.243 133.78C547.116 131.187 543.969 128.607 540.803 126.04L542.053 124.49Z" fill="white"/>
<path d="M328.172 9.68005C332.172 10.6201 336.112 11.6801 340.052 12.6801L339.522 14.6101C335.616 13.5501 331.679 12.5501 327.712 11.6101L328.172 9.68005Z" fill="white"/>
<path d="M419.892 43.52C423.532 45.3467 427.159 47.2167 430.772 49.13L429.832 50.9C426.246 48.9667 422.636 47.1034 419.002 45.31L419.892 43.52Z" fill="white"/>
<path d="M503.242 94.7C506.576 97.0866 509.862 99.5 513.102 101.94L511.912 103.54C508.639 101.107 505.359 98.7 502.072 96.32L503.242 94.7Z" fill="white"/>
<path d="M441.512 55C445.072 57 448.609 59.0333 452.122 61.1L451.122 62.82C447.616 60.76 444.089 58.7333 440.542 56.74L441.512 55Z" fill="white"/>
<path d="M397.722 33.12C401.462 34.76 405.179 36.4467 408.872 38.18L408.002 40C404.322 38.2667 400.622 36.6 396.902 35L397.722 33.12Z" fill="white"/>
<path d="M462.603 67.4301C466.073 69.5801 469.523 71.7501 472.953 73.9701L471.863 75.6501C468.443 73.4367 465.006 71.2634 461.553 69.1301L462.603 67.4301Z" fill="white"/>
<path d="M579.392 156.1C582.462 158.79 585.502 161.49 588.542 164.2L587.202 165.7C584.182 162.993 581.139 160.293 578.072 157.6L579.392 156.1Z" fill="white"/>
<path d="M483.163 80.7C486.549 82.9666 489.916 85.2733 493.263 87.62L492.123 89.26C488.789 86.9333 485.433 84.6333 482.053 82.36L483.163 80.7Z" fill="white"/>
<path d="M51.7025 91.76L53.3625 92.87C51.0925 96.26 48.9025 99.72 46.8025 103.22L45.0825 102.22C47.2025 98.6733 49.4092 95.1867 51.7025 91.76Z" fill="white"/>
<path d="M194.353 3.67004L194.633 5.67004C192.633 5.96004 190.633 6.26004 188.553 6.59004C186.473 6.92004 184.463 7.27004 182.443 7.59004L182.083 5.59004C184.083 5.21004 186.136 4.85338 188.243 4.52004C190.349 4.18671 192.386 3.90338 194.353 3.67004Z" fill="white"/>
<path d="M12.5924 181.93L14.5324 182.43C13.5057 186.43 12.5491 190.41 11.6624 194.37L9.7124 193.93C10.5724 189.943 11.5324 185.943 12.5924 181.93Z" fill="white"/>
<path d="M66.5823 72L68.1023 73.29C65.4356 76.41 62.889 79.5967 60.4623 82.85L58.8623 81.65C61.3423 78.41 63.9123 75.18 66.5823 72Z" fill="white"/>
<path d="M7.22256 206L9.22256 206.37C8.45589 210.423 7.75589 214.457 7.12256 218.47L5.12256 218.15C5.74256 214.14 6.44256 210.08 7.22256 206Z" fill="white"/>
<path d="M39.0024 112.93L40.7624 113.88C38.829 117.48 36.9857 121.123 35.2324 124.81L33.4224 124C35.189 120.26 37.049 116.57 39.0024 112.93Z" fill="white"/>
<path d="M83.6523 54.1801L85.0023 55.6401C82.0023 58.4201 79.0956 61.2834 76.2823 64.2301L74.8423 62.8501C77.6723 59.8801 80.6123 57.0001 83.6523 54.1801Z" fill="white"/>
<path d="M218.703 1L218.853 3C214.853 3.3 210.796 3.67333 206.683 4.12L206.473 2.12C210.573 1.68667 214.649 1.31333 218.703 1Z" fill="white"/>
<path d="M170.003 8.25L170.473 10.19C166.473 11.1833 162.549 12.2633 158.703 13.43L158.123 11.52C162.043 10.3333 166.003 9.24333 170.003 8.25Z" fill="white"/>
<path d="M28.3427 135.2L30.1827 135.98C28.5827 139.753 27.0593 143.547 25.6127 147.36L23.7427 146.65C25.196 142.81 26.7293 138.993 28.3427 135.2Z" fill="white"/>
<path d="M123.862 25.64L124.802 27.41C121.162 29.33 117.622 31.3533 114.182 33.48L113.132 31.77C116.612 29.63 120.189 27.5867 123.862 25.64Z" fill="white"/>
<path d="M146.432 15.51L147.132 17.38C143.252 18.84 139.476 20.38 135.802 22L135.002 20.22C138.709 18.5533 142.519 16.9833 146.432 15.51Z" fill="white"/>
<path d="M102.822 38.6L104.002 40.23C100.669 42.6033 97.4224 45.07 94.2624 47.63L93.0024 46.08C96.1691 43.4933 99.4424 41 102.822 38.6Z" fill="white"/>
<path d="M243.163 0V2C239.163 2 235.106 2.09667 230.993 2.29L230.913 0.29C235.003 0.12 239.103 0 243.163 0Z" fill="white"/>
<path d="M292.052 2.99999L291.782 4.99999C287.782 4.47332 283.746 4.00999 279.672 3.60999L279.862 1.60999C283.956 2.01665 288.019 2.47999 292.052 2.99999Z" fill="white"/>
<path d="M255.433 0.119995C259.519 0.233328 263.593 0.416662 267.653 0.669995L267.533 2.67C263.533 2.42333 259.479 2.24333 255.373 2.13L255.433 0.119995Z" fill="white"/>
<path d="M19.5923 158.28L21.4923 158.91C20.1823 162.8 18.9623 166.7 17.8023 170.61L15.8823 170C17.0423 166.1 18.279 162.193 19.5923 158.28Z" fill="white"/>
<path d="M5.3424 230.63C4.8124 234.74 4.3424 238.81 3.9624 242.83L1.9624 242.64C2.3624 238.6 2.8224 234.513 3.3424 230.38L5.3424 230.63Z" fill="white"/>
<path d="M2.94248 255.07C2.66248 259.23 2.44581 263.32 2.29248 267.34L0.29248 267.26C0.45248 263.26 0.66248 259.11 0.95248 254.94L2.94248 255.07Z" fill="white"/>
<path d="M2.1125 291.83L0.1125 291.88C0.0125 287.88 -0.0208333 283.78 0.0125 279.58H2.0125C2.00583 283.787 2.03917 287.87 2.1125 291.83Z" fill="white"/>
<path d="M3.07258 310.19L1.07258 310.36C0.912578 308.36 0.772578 306.36 0.642578 304.26L2.64258 304.13C2.76258 306.2 2.91258 308.22 3.07258 310.19Z" fill="white"/>
</svg>
