<svg width="940" height="353" viewBox="0 0 940 353" fill="none" xmlns="http://www.w3.org/2000/svg">
<path d="M939.856 345.935L930.467 352.656L929.34 341.164L939.856 345.935ZM673.426 244.742L674.112 244.015L673.426 244.742ZM189.056 6.21921L188.899 5.23165L189.056 6.21921ZM921.64 348.065C917.783 348.119 913.689 348.076 909.378 347.922L909.45 345.923C913.728 346.077 917.79 346.119 921.612 346.065L921.64 348.065ZM897.138 347.213C893.198 346.901 889.119 346.5 884.914 346.001L885.15 344.015C889.329 344.511 893.382 344.909 897.296 345.219L897.138 347.213ZM872.814 344.339C868.871 343.725 864.837 343.026 860.721 342.236L861.098 340.272C865.191 341.057 869.202 341.752 873.122 342.363L872.814 344.339ZM848.762 339.729C844.852 338.84 840.882 337.87 836.857 336.813L837.365 334.878C841.368 335.93 845.317 336.895 849.205 337.779L848.762 339.729ZM825.062 333.507C821.215 332.361 817.325 331.134 813.4 329.824L814.034 327.927C817.938 329.23 821.806 330.45 825.634 331.591L825.062 333.507ZM801.85 325.76C798.068 324.359 794.259 322.881 790.428 321.32L791.182 319.468C794.993 321.02 798.782 322.491 802.544 323.884L801.85 325.76ZM779.155 316.512C775.472 314.871 771.774 313.153 768.065 311.354L768.938 309.554C772.628 311.344 776.306 313.053 779.969 314.686L779.155 316.512ZM757.142 305.837C753.568 303.959 749.986 302.003 746.401 299.969L747.388 298.229C750.954 300.253 754.517 302.198 758.073 304.067L757.142 305.837ZM735.853 293.755C732.404 291.647 728.956 289.464 725.511 287.203L726.609 285.531C730.035 287.78 733.465 289.952 736.896 292.048L735.853 293.755ZM715.386 280.32C712.079 277.993 708.778 275.592 705.488 273.115L706.69 271.517C709.964 273.981 713.247 276.37 716.537 278.684L715.386 280.32ZM695.826 265.596C692.675 263.062 689.535 260.455 686.41 257.773L687.712 256.255C690.822 258.923 693.945 261.517 697.079 264.037L695.826 265.596ZM677.247 249.656C675.74 248.279 674.238 246.883 672.739 245.469L674.112 244.015C675.603 245.421 677.097 246.81 678.596 248.18L677.247 249.656ZM672.739 245.469C671.269 244.082 669.795 242.689 668.318 241.293L669.692 239.839C671.169 241.236 672.642 242.628 674.112 244.015L672.739 245.469ZM659.432 232.881C656.49 230.093 653.534 227.291 650.562 224.477L651.938 223.025C654.909 225.839 657.866 228.642 660.807 231.429L659.432 232.881ZM641.696 216.087C638.747 213.3 635.783 210.505 632.804 207.703L634.175 206.246C637.155 209.049 640.119 211.846 643.069 214.633L641.696 216.087ZM623.883 199.336C620.92 196.567 617.942 193.794 614.949 191.02L616.308 189.553C619.304 192.329 622.284 195.104 625.249 197.875L623.883 199.336ZM605.972 182.742C602.978 179.995 599.968 177.249 596.943 174.508L598.286 173.026C601.314 175.77 604.327 178.518 607.324 181.268L605.972 182.742ZM587.863 166.335C584.835 163.629 581.791 160.928 578.731 158.237L580.052 156.735C583.116 159.43 586.164 162.134 589.196 164.844L587.863 166.335ZM569.526 150.21C566.449 147.55 563.356 144.901 560.246 142.266L561.539 140.74C564.654 143.38 567.752 146.033 570.834 148.696L569.526 150.21ZM550.895 134.423C547.765 131.827 544.619 129.246 541.455 126.682L542.714 125.128C545.884 127.697 549.037 130.283 552.172 132.884L550.895 134.423ZM531.922 119.053C528.731 116.532 525.522 114.03 522.295 111.551L523.514 109.965C526.748 112.45 529.964 114.957 533.162 117.484L531.922 119.053ZM512.565 104.182C509.303 101.75 506.024 99.3416 502.727 96.96L503.898 95.3387C507.204 97.7264 510.491 100.141 513.761 102.579L512.565 104.182ZM492.777 89.8958C489.44 87.5675 486.084 85.2682 482.709 83.0002L483.824 81.3402C487.209 83.6149 490.575 85.9208 493.921 88.2555L492.777 89.8958ZM472.52 76.288C469.103 74.0818 465.666 71.9093 462.209 69.7727L463.26 68.0715C466.729 70.2151 470.177 72.3946 473.605 74.6077L472.52 76.288ZM451.765 63.4646C448.261 61.3977 444.737 59.3693 441.193 57.3817L442.171 55.6373C445.728 57.6322 449.265 59.6679 452.781 61.7419L451.765 63.4646ZM430.49 51.5386C426.898 49.6312 423.285 47.767 419.651 45.9483L420.546 44.1598C424.194 45.9858 427.822 47.8574 431.428 49.7722L430.49 51.5386ZM408.679 40.6283C404.999 38.9016 401.298 37.2228 397.575 35.5944L398.377 33.762C402.116 35.3977 405.833 37.0837 409.528 38.8177L408.679 40.6283ZM386.34 30.8616C382.575 29.3368 378.788 27.8646 374.979 26.4472L375.676 24.5728C379.504 25.9969 383.308 27.476 387.09 29.0078L386.34 30.8616ZM363.495 22.3657C359.648 21.063 355.78 19.8172 351.888 18.6307L352.471 16.7177C356.383 17.9102 360.271 19.1622 364.136 20.4714L363.495 22.3657ZM340.183 15.262C336.27 14.2026 332.333 13.2039 328.374 12.2682L328.834 10.3218C332.815 11.2625 336.772 12.2665 340.706 13.3315L340.183 15.262ZM316.461 9.66003C312.493 8.85998 308.502 8.12396 304.486 7.45417L304.815 5.48142C308.853 6.15495 312.867 6.89505 316.857 7.69948L316.461 9.66003ZM292.444 5.65548C288.429 5.12571 284.39 4.66276 280.327 4.26878L280.52 2.27812C284.606 2.67434 288.668 3.1399 292.706 3.67267L292.444 5.65548ZM268.188 3.30328C264.159 3.053 260.107 2.87101 256.031 2.75933L256.086 0.760078C260.185 0.872399 264.26 1.05542 268.312 1.30713L268.188 3.30328ZM243.829 2.63648C239.796 2.66566 235.739 2.76406 231.659 2.93357L231.576 0.935294C235.679 0.764831 239.758 0.665874 243.815 0.636535L243.829 2.63648ZM219.514 3.64501C215.479 3.94985 211.422 4.32448 207.343 4.77067L207.126 2.78253C211.227 2.33391 215.306 1.95722 219.363 1.6507L219.514 3.64501ZM195.289 6.28965C193.269 6.5777 191.244 6.88333 189.213 7.20676L188.899 5.23165C190.94 4.90652 192.976 4.59927 195.007 4.30968L195.289 6.28965ZM189.213 7.20676C187.155 7.53445 185.119 7.88678 183.104 8.26324L182.737 6.29726C184.77 5.9175 186.823 5.56213 188.899 5.23165L189.213 7.20676ZM171.162 10.8339C167.15 11.8152 163.227 12.8964 159.394 14.0733L158.807 12.1614C162.678 10.973 166.637 9.88151 170.687 8.89119L171.162 10.8339ZM147.787 18.0241C143.914 19.4763 140.138 21.0309 136.457 22.6826L135.638 20.8579C139.358 19.1889 143.172 17.6184 147.085 16.1514L147.787 18.0241ZM125.459 28.0491C121.819 29.9737 118.28 31.9981 114.838 34.1165L113.79 32.4134C117.268 30.2722 120.845 28.2261 124.524 26.281L125.459 28.0491ZM104.64 40.8661C101.294 43.2421 98.0496 45.7116 94.9042 48.2683L93.6427 46.7163C96.8213 44.1326 100.1 41.6368 103.482 39.2354L104.64 40.8661ZM85.6642 56.2841C82.6586 59.0636 79.7531 61.9271 76.9447 64.8674L75.4984 63.486C78.3347 60.5164 81.2697 57.6239 84.3062 54.8157L85.6642 56.2841ZM68.7615 73.968C66.1195 77.0874 63.5737 80.2783 61.1213 83.5337L59.5239 82.3303C61.9986 79.0453 64.5681 75.8246 67.2353 72.6754L68.7615 73.968ZM54.0232 93.5128C51.7451 96.905 49.5584 100.355 47.4599 103.856L45.7445 102.827C47.86 99.2983 50.0651 95.8193 52.3628 92.3978L54.0232 93.5128ZM41.4194 114.516C39.49 118.12 37.6465 121.768 35.886 125.452L34.0815 124.59C35.8547 120.879 37.7119 117.204 39.6561 113.572L41.4194 114.516ZM30.8421 136.625C29.2381 140.391 27.7147 144.186 26.2692 148.002L24.3988 147.294C25.8537 143.453 27.3871 139.633 29.0021 135.841L30.8421 136.625ZM22.1484 159.553C20.8443 163.44 19.6163 167.342 18.4615 171.251L16.5434 170.684C17.705 166.753 18.9402 162.828 20.2522 158.917L22.1484 159.553ZM15.1914 183.075C14.1638 187.055 13.2086 191.034 12.3225 195.005L10.3705 194.569C11.2613 190.578 12.2217 186.577 13.2549 182.575L15.1914 183.075ZM9.84109 207.024C9.07106 211.075 8.37047 215.109 7.7358 219.117L5.76042 218.804C6.39822 214.777 7.10231 210.722 7.87626 206.65L9.84109 207.024ZM5.99778 231.271C5.47264 235.38 5.01518 239.451 4.6214 243.474L2.63091 243.279C3.02658 239.237 3.48624 235.147 4.01392 231.017L5.99778 231.271ZM3.60473 255.714C3.32099 259.871 3.1045 263.962 2.95048 267.975L0.951949 267.898C1.10673 263.865 1.32427 259.754 1.60937 255.577L3.60473 255.714ZM2.66713 280.238C2.63523 284.429 2.67182 288.513 2.77066 292.473L0.771283 292.523C0.6719 288.541 0.635122 284.436 0.66719 280.223L2.66713 280.238ZM3.29573 304.774C3.42209 306.839 3.56592 308.86 3.72612 310.834L1.73267 310.996C1.57138 309.008 1.42661 306.974 1.29947 304.896L3.29573 304.774Z" fill="white"/>
</svg>
