<svg width="24" height="25" viewBox="0 0 24 25" fill="none" xmlns="http://www.w3.org/2000/svg">
<path fill-rule="evenodd" clip-rule="evenodd" d="M16 3.57471H8C5.23858 3.57471 3 5.81329 3 8.57471V16.5747C3 19.3361 5.23858 21.5747 8 21.5747H16C18.7614 21.5747 21 19.3361 21 16.5747V8.57471C21 5.81329 18.7614 3.57471 16 3.57471ZM19.25 16.5747C19.2445 18.3673 17.7926 19.8192 16 19.8247H8C6.20735 19.8192 4.75549 18.3673 4.75 16.5747V8.57471C4.75549 6.78206 6.20735 5.3302 8 5.32471H16C17.7926 5.3302 19.2445 6.78206 19.25 8.57471V16.5747ZM16.75 8.82471C17.3023 8.82471 17.75 8.37699 17.75 7.82471C17.75 7.27243 17.3023 6.82471 16.75 6.82471C16.1977 6.82471 15.75 7.27243 15.75 7.82471C15.75 8.37699 16.1977 8.82471 16.75 8.82471ZM12 8.07471C9.51472 8.07471 7.5 10.0894 7.5 12.5747C7.5 15.06 9.51472 17.0747 12 17.0747C14.4853 17.0747 16.5 15.06 16.5 12.5747C16.5027 11.3804 16.0294 10.2343 15.1849 9.38979C14.3404 8.5453 13.1943 8.07205 12 8.07471ZM9.25 12.5747C9.25 14.0935 10.4812 15.3247 12 15.3247C13.5188 15.3247 14.75 14.0935 14.75 12.5747C14.75 11.0559 13.5188 9.82471 12 9.82471C10.4812 9.82471 9.25 11.0559 9.25 12.5747Z" fill="white"/>
</svg>
