<svg width="24" height="25" viewBox="0 0 24 25" fill="none" xmlns="http://www.w3.org/2000/svg">
<path fill-rule="evenodd" clip-rule="evenodd" d="M4.5 3.57471C3.67157 3.57471 3 4.24628 3 5.07471V20.0747C3 20.9031 3.67157 21.5747 4.5 21.5747H19.5C20.3284 21.5747 21 20.9031 21 20.0747V5.07471C21 4.24628 20.3284 3.57471 19.5 3.57471H4.5ZM8.52076 7.57743C8.52639 8.53368 7.81061 9.1229 6.96123 9.11868C6.16107 9.11446 5.46357 8.47743 5.46779 7.57884C5.47201 6.73368 6.13998 6.05446 7.00764 6.07415C7.88795 6.09384 8.52639 6.73931 8.52076 7.57743ZM12.2797 10.3365H9.75971H9.7583V18.8963H12.4217V18.6966C12.4217 18.3167 12.4214 17.9367 12.4211 17.5566C12.4203 16.5428 12.4194 15.5279 12.4246 14.5144C12.426 14.2683 12.4372 14.0124 12.5005 13.7775C12.7381 12.9 13.5271 12.3333 14.4074 12.4726C14.9727 12.5611 15.3467 12.8888 15.5042 13.4218C15.6013 13.755 15.6449 14.1136 15.6491 14.461C15.6605 15.5086 15.6589 16.5562 15.6573 17.6039C15.6567 17.9737 15.6561 18.3437 15.6561 18.7135V18.8949H18.328V18.6896C18.328 18.2376 18.3278 17.7857 18.3275 17.3338C18.327 16.2043 18.3264 15.0748 18.3294 13.9449C18.3308 13.4344 18.276 12.931 18.1508 12.4374C17.9638 11.7033 17.5771 11.0958 16.9485 10.6571C16.5027 10.3449 16.0133 10.1438 15.4663 10.1213C15.404 10.1187 15.3412 10.1153 15.2781 10.1119C14.9984 10.0968 14.7141 10.0814 14.4467 10.1354C13.6817 10.2886 13.0096 10.6388 12.5019 11.2561C12.4429 11.3269 12.3852 11.3988 12.2991 11.5061L12.2797 11.5304V10.3365ZM5.68164 18.8991H8.33242V10.342H5.68164V18.8991Z" fill="white"/>
</svg>
