<svg width="122" height="36" viewBox="0 0 122 36" fill="none" xmlns="http://www.w3.org/2000/svg">
<path d="M39.1104 13.5988C41.8829 13.5988 43.0745 14.8878 43.0745 17.5143V18.1223C43.0745 19.8734 42.5395 20.9678 41.3478 21.5271V21.5758C42.7827 22.1351 43.3421 23.3998 43.3421 25.1994V26.5857C43.3421 29.2122 41.9558 30.6228 39.2806 30.6228H35.0733V13.5988H39.1104ZM38.9401 22.962H37.7485V28.1908H39.2806C40.1805 28.1908 40.6669 27.7774 40.6669 26.5127V25.0292C40.6669 23.4484 40.1561 22.962 38.9401 22.962ZM39.0374 16.0308H37.7485V20.53H38.7942C39.7913 20.53 40.3993 20.0922 40.3993 18.7303V17.7818C40.3993 16.5658 39.9859 16.0308 39.0374 16.0308ZM53.2707 30.6228H50.5469C50.4009 30.185 50.3037 29.9175 50.3037 28.5313V25.8561C50.3037 24.2753 49.7686 23.6916 48.5526 23.6916H47.6285V30.6228H44.9533V13.5988H48.9904C51.7629 13.5988 52.9545 14.8878 52.9545 17.5143V18.8519C52.9545 20.603 52.3952 21.7217 51.2035 22.281V22.3297C52.5411 22.889 52.9789 24.1537 52.9789 25.929V28.5556C52.9789 29.3825 53.0032 29.9905 53.2707 30.6228ZM48.9174 16.0308H47.6285V21.2596H48.6742C49.6713 21.2596 50.2793 20.8218 50.2793 19.4599V17.7818C50.2793 16.5658 49.8659 16.0308 48.9174 16.0308ZM60.6723 13.5988L63.3962 30.6228H60.6967L60.2346 27.5342H56.9514L56.4893 30.6228H54.033L56.7568 13.5988H60.6723ZM58.5565 16.6145L57.2919 25.2238H59.8698L58.6051 16.6145H58.5565ZM70.3572 30.6228L67.074 18.2926H67.0254V30.6228H64.6177V13.5988H67.9739L70.6734 23.7889H70.722V13.5988H73.1054V30.6228H70.3572ZM75.0208 30.6228V13.5988H79.2524C81.9276 13.5988 83.2409 15.0823 83.2409 17.8062V26.4154C83.2409 29.1393 81.9276 30.6228 79.2524 30.6228H75.0208ZM79.2038 16.0308H77.696V28.1908H79.2038C80.055 28.1908 80.5657 27.753 80.5657 26.537V17.6846C80.5657 16.4686 80.055 16.0308 79.2038 16.0308ZM84.9483 30.6228V13.5988H87.6235V28.1908H92.0254V30.6228H84.9483ZM94.1982 30.6228V24.9806L90.8177 13.5988H93.6145L95.6331 21.3569H95.6817L97.7003 13.5988H100.254L96.8734 24.9806V30.6228H94.1982Z" fill="white"/>
<path fill-rule="evenodd" clip-rule="evenodd" d="M11.6916 2.45703L11.6916 20.443L1.5 20.443C0.671572 20.443 0 21.1146 0 21.943V30.6346C0 31.463 0.671573 32.1346 1.5 32.1346H10.1916C11.02 32.1346 11.6916 31.463 11.6916 30.6346L11.6916 20.443H29.6776C30.506 20.443 31.1776 19.7714 31.1776 18.943L31.1776 2.45703C31.1776 1.6286 30.506 0.957031 29.6776 0.957031H13.1916C12.3632 0.957031 11.6916 1.62861 11.6916 2.45703Z" fill="#38B6FF"/>
</svg>
