<svg viewBox="0 0 28 27" fill="none" xmlns="http://www.w3.org/2000/svg">
<path d="M12.6625 1.7999C13.1357 0.676073 14.7472 0.676074 15.2204 1.79991L18.0129 8.43296C18.2125 8.90674 18.6635 9.23045 19.1812 9.27145L26.4297 9.84555C27.6578 9.94282 28.1558 11.4569 27.2201 12.2488L21.6975 16.9222C21.3031 17.2561 21.1307 17.7799 21.2513 18.279L22.9385 25.2669C23.2244 26.4508 21.9207 27.3866 20.8692 26.7522L14.6635 23.0075C14.2202 22.74 13.6627 22.74 13.2195 23.0075L7.01366 26.7522C5.96221 27.3866 4.65848 26.4508 4.94434 25.2669L6.6316 18.279C6.75212 17.7799 6.57985 17.2561 6.1854 16.9222L0.662737 12.2488C-0.272959 11.4569 0.225028 9.94282 1.45315 9.84555L8.70172 9.27145C9.21947 9.23045 9.67048 8.90674 9.86994 8.43296L12.6625 1.7999Z" fill="#38B6FF"/>
</svg>
