<svg width="927" height="401" viewBox="0 0 927 401" fill="none" xmlns="http://www.w3.org/2000/svg">
<path fill-rule="evenodd" clip-rule="evenodd" d="M629.321 2.10258C633.382 2.01387 637.445 1.98211 641.509 2.00959L641.522 0.0096368C637.439 -0.017978 633.357 0.013936 629.277 0.10306L629.321 2.10258ZM653.694 2.27164C657.752 2.41947 661.811 2.62857 665.871 2.90121L666.005 0.905701C661.925 0.63167 657.845 0.421527 653.767 0.272967L653.694 2.27164ZM604.97 3.30114C609.023 2.99347 613.079 2.73822 617.137 2.5377L617.039 0.540138C612.962 0.741544 608.888 0.9979 604.818 1.30688L604.97 3.30114ZM678.009 3.90794C682.044 4.30697 686.078 4.77098 690.112 5.30222L690.373 3.31934C686.317 2.78525 682.262 2.31877 678.206 1.91765L678.009 3.90794ZM580.706 5.75632C584.741 5.24862 588.781 4.7887 592.824 4.37883L592.622 2.38903C588.563 2.80056 584.507 3.26231 580.456 3.77196L580.706 5.75632ZM702.174 7.09357C706.168 7.75465 710.161 8.48385 714.152 9.28335L714.545 7.3223C710.531 6.51835 706.516 5.78512 702.501 5.12042L702.174 7.09357ZM556.582 9.35113C560.592 8.6631 564.607 8.01811 568.626 7.41842L568.331 5.44032C564.297 6.04221 560.268 6.68952 556.244 7.37994L556.582 9.35113ZM532.626 13.9697C536.605 13.1207 540.589 12.3101 544.579 11.5401L544.2 9.57635C540.197 10.3489 536.2 11.1621 532.209 12.0137L532.626 13.9697ZM726.048 11.8776C729.99 12.8081 733.93 13.8094 737.868 14.8835L738.395 12.954C734.434 11.8738 730.472 10.8668 726.508 9.93111L726.048 11.8776ZM508.858 19.4984C512.805 18.5068 516.758 17.5489 520.719 16.627L520.265 14.6791C516.293 15.6037 512.328 16.5643 508.371 17.5587L508.858 19.4984ZM749.559 18.2912C753.415 19.4877 757.267 20.7563 761.117 22.0989L761.776 20.2105C757.904 18.8602 754.029 17.5844 750.152 16.3811L749.559 18.2912ZM485.287 25.8282C489.2 24.7121 493.12 23.6252 497.048 22.5696L496.529 20.6381C492.591 21.6964 488.66 22.7861 484.738 23.905L485.287 25.8282ZM772.567 26.3165C776.328 27.7761 780.085 29.3084 783.839 30.9154L784.626 29.0768C780.852 27.4608 777.073 25.9198 773.291 24.452L772.567 26.3165ZM461.91 32.8571C465.789 31.6332 469.678 30.434 473.574 29.2617L472.998 27.3464C469.093 28.5215 465.196 29.7233 461.309 30.9498L461.91 32.8571ZM794.941 35.893C798.604 37.6104 802.264 39.401 805.919 41.2666L806.828 39.4852C803.153 37.6095 799.473 35.8091 795.79 34.0821L794.941 35.893ZM438.717 40.4891C442.565 39.1731 446.423 37.8773 450.29 36.6039L449.665 34.7042C445.79 35.98 441.924 37.2783 438.069 38.5967L438.717 40.4891ZM415.694 48.6315C419.515 47.2379 423.347 45.86 427.19 44.5003L426.523 42.6148C422.674 43.9768 418.836 45.3569 415.009 46.7526L415.694 48.6315ZM816.648 46.9665C818.434 47.9529 820.219 48.9578 822.002 49.9812C823.81 51.0181 825.588 52.0705 827.338 53.1378L828.379 51.4303C826.614 50.3536 824.82 49.2922 822.998 48.2465C821.205 47.2176 819.41 46.2075 817.615 45.2158L816.648 46.9665ZM392.827 57.1958C396.619 55.7409 400.423 54.2974 404.239 52.8675L403.538 50.9947C399.716 52.4265 395.907 53.8719 392.11 55.3285L392.827 57.1958ZM837.589 59.7813C840.992 62.1233 844.275 64.5267 847.441 66.9881L848.668 65.4091C845.471 62.9238 842.158 60.4975 838.723 58.1338L837.589 59.7813ZM370.072 66.1034C373.847 64.5987 377.636 63.1007 381.437 61.6118L380.708 59.7495C376.902 61.24 373.11 62.7395 369.332 64.2456L370.072 66.1034ZM347.436 75.2572C351.19 73.7204 354.958 72.1855 358.741 70.655L357.991 68.801C354.205 70.3326 350.434 71.8686 346.679 73.4064L347.436 75.2572ZM856.888 74.8026C859.993 77.5353 862.971 80.3293 865.826 83.1803L867.239 81.7652C864.355 78.8844 861.346 76.0617 858.21 73.3013L856.888 74.8026ZM324.837 84.5918C328.583 83.0338 332.346 81.4727 336.126 79.9109L335.362 78.0625C331.581 79.625 327.816 81.1867 324.069 82.7452L324.837 84.5918ZM302.293 93.994L306.618 92.1887C308.928 91.2241 311.245 90.2567 313.569 89.2869L312.799 87.4412C310.487 88.4057 308.182 89.368 305.885 90.3273L301.523 92.1483L302.293 93.994ZM874.202 92.1022C876.922 95.1938 879.512 98.343 881.976 101.545L883.561 100.325C881.07 97.0887 878.452 93.9057 875.704 90.7812L874.202 92.1022ZM285.383 101.037C287.251 100.262 289.123 99.4841 291 98.7028L290.231 96.8564C288.355 97.6374 286.483 98.4155 284.617 99.1902C282.724 99.976 280.833 100.743 278.945 101.492L279.683 103.351C281.58 102.598 283.481 101.827 285.383 101.037ZM256.655 111.655C260.5 110.405 264.361 109.083 268.235 107.686L267.556 105.804C263.702 107.194 259.862 108.51 256.036 109.753L256.655 111.655ZM16.2721 108.573C19.8587 109.993 23.7017 111.407 27.7862 112.793L28.4288 110.899C24.3747 109.523 20.5629 108.121 17.0083 106.714L16.2721 108.573ZM889.114 111.476C891.398 114.885 893.554 118.346 895.587 121.853L897.317 120.85C895.263 117.306 893.084 113.808 890.775 110.363L889.114 111.476ZM233.142 118.475C237.059 117.474 240.997 116.401 244.953 115.254L244.396 113.333C240.461 114.475 236.543 115.542 232.646 116.537L233.142 118.475ZM39.4804 116.476C43.2744 117.583 47.23 118.657 51.3384 119.684L51.8233 117.743C47.7401 116.723 43.8097 115.656 40.0408 114.556L39.4804 116.476ZM209.237 123.768C213.21 123.022 217.209 122.205 221.232 121.314L220.8 119.362C216.798 120.248 212.82 121.06 208.868 121.802L209.237 123.768ZM63.2397 122.426C67.1445 123.252 71.1639 124.031 75.2917 124.754L75.6367 122.784C71.532 122.065 67.5356 121.291 63.6535 120.47L63.2397 122.426ZM185.045 127.504C189.054 127.017 193.097 126.46 197.171 125.831L196.865 123.855C192.813 124.481 188.792 125.034 184.804 125.518L185.045 127.504ZM87.3618 126.656C91.3322 127.214 95.3888 127.716 99.527 128.157L99.7389 126.169C95.6231 125.73 91.5885 125.23 87.6399 124.676L87.3618 126.656ZM160.677 129.668C164.702 129.441 168.769 129.147 172.876 128.783L172.699 126.79C168.614 127.153 164.568 127.445 160.564 127.671L160.677 129.668ZM111.726 129.255C115.731 129.549 119.802 129.784 123.936 129.953L124.018 127.954C119.905 127.786 115.856 127.553 111.873 127.26L111.726 129.255ZM136.178 130.254C140.21 130.288 144.296 130.258 148.432 130.159L148.384 128.16C144.27 128.258 140.206 128.288 136.194 128.254L136.178 130.254ZM901.379 132.627C903.202 136.293 904.901 140.001 906.482 143.747L908.325 142.969C906.728 139.186 905.011 135.44 903.17 131.737L901.379 132.627ZM910.901 155.16C912.263 159.014 913.51 162.901 914.647 166.815L916.568 166.258C915.421 162.308 914.162 158.385 912.787 154.494L910.901 155.16ZM917.74 178.665C918.665 182.645 919.484 186.646 920.203 190.664L922.172 190.312C921.447 186.261 920.621 182.226 919.688 178.212L917.74 178.665ZM922.065 202.775C922.589 206.829 923.017 210.894 923.355 214.963L925.348 214.797C925.008 210.699 924.576 206.604 924.048 202.518L922.065 202.775ZM924.103 227.199C924.265 231.288 924.342 235.377 924.338 239.458L926.338 239.46C926.342 235.352 926.265 231.237 926.101 227.119L924.103 227.199ZM924.089 251.719C923.928 255.816 923.691 259.9 923.382 263.964L925.377 264.116C925.687 260.028 925.926 255.92 926.088 251.798L924.089 251.719ZM922.241 276.179C921.789 280.264 921.269 284.324 920.687 288.35L922.667 288.636C923.251 284.588 923.774 280.507 924.229 276.399L922.241 276.179ZM918.74 300.467C918.021 304.528 917.243 308.548 916.414 312.519L918.372 312.928C919.205 308.937 919.987 304.897 920.709 300.815L918.74 300.467ZM913.723 324.499C912.755 328.527 911.737 332.495 910.677 336.395L912.607 336.92C913.672 333.001 914.695 329.014 915.668 324.966L913.723 324.499ZM907.282 348.199C906.071 352.185 904.821 356.087 903.54 359.893L905.435 360.531C906.722 356.706 907.979 352.786 909.195 348.78L907.282 348.199ZM899.45 371.458C897.992 375.387 896.508 379.192 895.009 382.859L896.861 383.616C898.368 379.928 899.86 376.103 901.325 372.154L899.45 371.458ZM890.151 394.172C889.3 396.057 888.448 397.896 887.597 399.684L889.403 400.543C890.26 398.742 891.117 396.892 891.974 394.995L890.151 394.172Z" fill="white"/>
<path d="M0 100.114L6.39069 109.731L11.5242 99.388L0 100.114Z" fill="#E83A77"/>
</svg>
