<svg viewBox="0 0 114 27" fill="none" xmlns="http://www.w3.org/2000/svg">
  <rect x="16.3789" y="6.63525" width="4.5765" height="4.5765" fill="white" />
  <rect x="11.8022" y="11.2119" width="4.5765" height="4.5765" fill="white" />
  <rect x="11.8022" y="11.2119" width="4.5765" height="4.5765" fill="white" />
  <rect x="16.3789" y="15.7883" width="4.5765" height="4.5765" fill="white" />
  <rect x="11.8022" y="20.3647" width="4.5765" height="4.5765" fill="white" />
  <rect x="7.22583" y="20.3647" width="4.5765" height="4.5765" fill="white" />
  <rect x="11.8022" y="2.05884" width="4.5765" height="4.5765" fill="white" />
  <path d="M7.22583 2.05884H11.8023V6.63533H7.22583V2.05884Z" fill="white" />
  <path
    d="M35.2611 19.4872H35.1534C34.9093 20.1476 34.5073 20.6645 33.9474 21.0378C33.4018 21.4111 32.7557 21.5978 32.0091 21.5978C30.5877 21.5978 29.4893 21.0881 28.714 20.0687C27.9387 19.0349 27.551 17.592 27.551 15.7398C27.551 13.8877 27.9387 12.4519 28.714 11.4326C29.4893 10.3988 30.5877 9.88193 32.0091 9.88193C32.7557 9.88193 33.4018 10.0686 33.9474 10.4419C34.5073 10.8008 34.9093 11.3177 35.1534 11.9925H35.2611V5.40234H37.6086V21.3393H35.2611V19.4872ZM32.7198 19.5733C33.4377 19.5733 34.0407 19.401 34.5288 19.0565C35.017 18.6975 35.2611 18.2309 35.2611 17.6566V13.8231C35.2611 13.2488 35.017 12.7893 34.5288 12.4448C34.0407 12.0858 33.4377 11.9064 32.7198 11.9064C31.9014 11.9064 31.2481 12.172 30.76 12.7032C30.2718 13.2201 30.0277 13.9092 30.0277 14.7707V16.709C30.0277 17.5704 30.2718 18.2668 30.76 18.798C31.2481 19.3149 31.9014 19.5733 32.7198 19.5733Z"
    fill="white" />
  <path
    d="M47.8232 21.3393C47.2058 21.3393 46.732 21.167 46.4018 20.8224C46.0716 20.4635 45.8706 20.0112 45.7988 19.4656H45.6911C45.4758 20.1692 45.0809 20.7004 44.5066 21.0593C43.9323 21.4183 43.236 21.5978 42.4176 21.5978C41.2546 21.5978 40.3573 21.2962 39.7255 20.6932C39.1081 20.0902 38.7994 19.279 38.7994 18.2596C38.7994 17.1397 39.2015 16.2998 40.0055 15.7398C40.8239 15.1799 42.0156 14.8999 43.5805 14.8999H45.605V13.9523C45.605 13.2631 45.4183 12.7319 45.045 12.3586C44.6717 11.9853 44.0902 11.7987 43.3006 11.7987C42.6401 11.7987 42.1017 11.9422 41.6853 12.2294C41.269 12.5166 40.9172 12.8827 40.63 13.3278L39.2302 12.0571C39.6035 11.4254 40.1275 10.9085 40.8023 10.5065C41.4771 10.0901 42.3601 9.88193 43.4513 9.88193C44.9014 9.88193 46.0142 10.2193 46.7895 10.8941C47.5648 11.5689 47.9524 12.5381 47.9524 13.8016V19.4226H49.1369V21.3393H47.8232ZM43.0852 19.8102C43.8174 19.8102 44.4205 19.6523 44.8943 19.3364C45.3681 19.0062 45.605 18.5683 45.605 18.0227V16.4075H43.6236C42.0012 16.4075 41.19 16.91 41.19 17.915V18.3027C41.19 18.8052 41.3551 19.1857 41.6853 19.4441C42.0299 19.6882 42.4965 19.8102 43.0852 19.8102Z"
    fill="white" />
  <path
    d="M53.1298 21.3393C52.3114 21.3393 51.694 21.1311 51.2776 20.7148C50.8613 20.284 50.6531 19.681 50.6531 18.9057V12.0571H48.9086V10.1404H49.8562C50.2439 10.1404 50.5095 10.0542 50.6531 9.88193C50.811 9.70963 50.89 9.42966 50.89 9.042V7.08219H53.0006V10.1404H55.348V12.0571H53.0006V19.4226H55.1757V21.3393H53.1298Z"
    fill="white" />
  <path
    d="M64.7537 21.3393C64.1364 21.3393 63.6626 21.167 63.3323 20.8224C63.0021 20.4635 62.8011 20.0112 62.7293 19.4656H62.6216C62.4063 20.1692 62.0114 20.7004 61.4371 21.0593C60.8628 21.4183 60.1665 21.5978 59.3481 21.5978C58.1851 21.5978 57.2878 21.2962 56.656 20.6932C56.0386 20.0902 55.73 19.279 55.73 18.2596C55.73 17.1397 56.132 16.2998 56.936 15.7398C57.7544 15.1799 58.9461 14.8999 60.5111 14.8999H62.5355V13.9523C62.5355 13.2631 62.3488 12.7319 61.9755 12.3586C61.6022 11.9853 61.0208 11.7987 60.2311 11.7987C59.5706 11.7987 59.0322 11.9422 58.6158 12.2294C58.1995 12.5166 57.8477 12.8827 57.5606 13.3278L56.1607 12.0571C56.534 11.4254 57.058 10.9085 57.7329 10.5065C58.4077 10.0901 59.2907 9.88193 60.3818 9.88193C61.832 9.88193 62.9447 10.2193 63.72 10.8941C64.4953 11.5689 64.883 12.5381 64.883 13.8016V19.4226H66.0675V21.3393H64.7537ZM60.0157 19.8102C60.748 19.8102 61.351 19.6523 61.8248 19.3364C62.2986 19.0062 62.5355 18.5683 62.5355 18.0227V16.4075H60.5541C58.9317 16.4075 58.1205 16.91 58.1205 17.915V18.3027C58.1205 18.8052 58.2856 19.1857 58.6158 19.4441C58.9604 19.6882 59.4271 19.8102 60.0157 19.8102Z"
    fill="white" />
  <path
    d="M67.1944 6.30687H73.8492C75.0983 6.30687 76.0746 6.65864 76.7782 7.36216C77.496 8.06568 77.855 9.00611 77.855 10.1834C77.855 10.7434 77.776 11.2244 77.6181 11.6264C77.4601 12.014 77.2591 12.3371 77.015 12.5955C76.771 12.8396 76.491 13.0262 76.1751 13.1555C75.8593 13.2703 75.5506 13.3421 75.2491 13.3708V13.5001C75.5506 13.5144 75.8808 13.5862 76.2397 13.7154C76.613 13.8446 76.9576 14.0528 77.2735 14.34C77.5894 14.6128 77.855 14.9717 78.0703 15.4168C78.2857 15.8475 78.3934 16.3788 78.3934 17.0105C78.3934 17.6135 78.2929 18.1806 78.0919 18.7119C77.9052 19.2431 77.6396 19.7025 77.295 20.0902C76.9504 20.4779 76.5412 20.7866 76.0674 21.0163C75.5936 21.2316 75.0768 21.3393 74.5168 21.3393H67.1944V6.30687ZM69.628 19.2503H73.8061C74.4379 19.2503 74.9332 19.0852 75.2921 18.7549C75.6511 18.4247 75.8305 17.9509 75.8305 17.3335V16.6013C75.8305 15.9839 75.6511 15.5101 75.2921 15.1799C74.9332 14.8497 74.4379 14.6846 73.8061 14.6846H69.628V19.2503ZM69.628 12.6601H73.3969C73.9999 12.6601 74.4666 12.5094 74.7968 12.2079C75.127 11.892 75.2921 11.4469 75.2921 10.8726V10.1834C75.2921 9.60913 75.127 9.17122 74.7968 8.86971C74.4666 8.55384 73.9999 8.39591 73.3969 8.39591H69.628V12.6601Z"
    fill="white" />
  <path d="M79.8725 10.1404H82.22V21.3393H79.8725V10.1404Z" fill="white" />
  <path
    d="M87.3273 21.3393C86.5089 21.3393 85.8915 21.1311 85.4752 20.7148C85.0588 20.284 84.8506 19.681 84.8506 18.9057V12.0571H83.1062V10.1404H84.0538C84.4414 10.1404 84.707 10.0542 84.8506 9.88193C85.0086 9.70963 85.0875 9.42966 85.0875 9.042V7.08219H87.1981V10.1404H89.5456V12.0571H87.1981V19.4226H89.3733V21.3393H87.3273Z"
    fill="white" />
  <path
    d="M95.0552 21.5978C94.2512 21.5978 93.5333 21.4614 92.9015 21.1886C92.2698 20.9158 91.7314 20.5281 91.2863 20.0256C90.8412 19.5087 90.4966 18.8913 90.2526 18.1735C90.0228 17.4412 89.908 16.63 89.908 15.7398C89.908 14.8497 90.0228 14.0456 90.2526 13.3278C90.4966 12.5955 90.8412 11.9781 91.2863 11.4756C91.7314 10.9587 92.2698 10.5639 92.9015 10.2911C93.5333 10.0183 94.2512 9.88193 95.0552 9.88193C95.8736 9.88193 96.5915 10.0255 97.2088 10.3127C97.8406 10.5998 98.3646 11.0018 98.781 11.5187C99.1974 12.0212 99.5061 12.6099 99.7071 13.2847C99.9224 13.9595 100.03 14.6846 100.03 15.4599V16.3429H92.3416V16.709C92.3416 17.5704 92.5929 18.2811 93.0954 18.8411C93.6123 19.3867 94.3445 19.6595 95.2921 19.6595C95.9813 19.6595 96.5627 19.5087 97.0366 19.2072C97.5104 18.9057 97.9124 18.4965 98.2426 17.9796L99.6209 19.3364C99.2046 20.0256 98.6015 20.5784 97.8119 20.9947C97.0222 21.3968 96.1033 21.5978 95.0552 21.5978ZM95.0552 11.7125C94.6532 11.7125 94.2799 11.7843 93.9353 11.9279C93.6051 12.0715 93.3179 12.2725 93.0738 12.5309C92.8441 12.7893 92.6646 13.098 92.5354 13.457C92.4062 13.8159 92.3416 14.2108 92.3416 14.6415V14.7922H97.5534V14.5769C97.5534 13.7154 97.3309 13.0262 96.8858 12.5094C96.4407 11.9781 95.8305 11.7125 95.0552 11.7125Z"
    fill="white" />
  <path
    d="M104.836 21.5978C103.774 21.5978 102.884 21.4111 102.166 21.0378C101.448 20.6645 100.823 20.1476 100.292 19.4872L101.8 18.1089C102.216 18.6114 102.675 19.0062 103.178 19.2934C103.695 19.5662 104.291 19.7026 104.965 19.7026C105.655 19.7026 106.164 19.5733 106.495 19.3149C106.839 19.0421 107.011 18.6688 107.011 18.195C107.011 17.8361 106.889 17.5345 106.645 17.2905C106.416 17.032 106.006 16.8669 105.418 16.7951L104.384 16.6659C103.235 16.5223 102.331 16.1921 101.67 15.6752C101.024 15.144 100.701 14.3615 100.701 13.3278C100.701 12.7822 100.802 12.3012 101.003 11.8848C101.204 11.4541 101.484 11.0951 101.843 10.808C102.216 10.5065 102.654 10.2768 103.156 10.1188C103.673 9.96089 104.24 9.88193 104.858 9.88193C105.863 9.88193 106.681 10.0399 107.313 10.3557C107.959 10.6716 108.533 11.1095 109.036 11.6695L107.593 13.0478C107.306 12.7032 106.925 12.4089 106.452 12.1648C105.992 11.9064 105.461 11.7771 104.858 11.7771C104.212 11.7771 103.731 11.9064 103.415 12.1648C103.113 12.4232 102.963 12.7606 102.963 13.177C102.963 13.6077 103.099 13.9308 103.372 14.1461C103.645 14.3615 104.083 14.5194 104.686 14.6199L105.719 14.7492C106.954 14.9358 107.851 15.3019 108.411 15.8475C108.986 16.3788 109.273 17.0966 109.273 18.0012C109.273 18.5468 109.165 19.0421 108.95 19.4872C108.749 19.9179 108.454 20.2912 108.067 20.6071C107.679 20.9229 107.212 21.167 106.667 21.3393C106.121 21.5116 105.511 21.5978 104.836 21.5978Z"
    fill="white" />
  <path
    d="M111.896 21.5978C111.364 21.5978 110.969 21.4614 110.711 21.1886C110.453 20.9014 110.323 20.5497 110.323 20.1333V19.8102C110.323 19.3939 110.453 19.0493 110.711 18.7765C110.969 18.4893 111.364 18.3458 111.896 18.3458C112.427 18.3458 112.822 18.4893 113.08 18.7765C113.338 19.0493 113.468 19.3939 113.468 19.8102V20.1333C113.468 20.5497 113.338 20.9014 113.08 21.1886C112.822 21.4614 112.427 21.5978 111.896 21.5978Z"
    fill="white" />
</svg>