<svg viewBox="0 0 152 27" fill="none" xmlns="http://www.w3.org/2000/svg">
<path d="M2.46606 18.115C2.46606 16.2034 4.01568 14.6538 5.92724 14.6538V14.6538C7.83879 14.6538 9.38841 16.2034 9.38841 18.115V18.115C9.38841 20.0265 7.83879 21.5761 5.92724 21.5761V21.5761C4.01568 21.5761 2.46606 20.0265 2.46606 18.115V18.115Z" fill="white"/>
<path d="M10.7344 13.4997C10.7344 11.5882 12.284 10.0386 14.1955 10.0386V10.0386C16.1071 10.0386 17.6567 11.5882 17.6567 13.4997V18.1146C17.6567 20.0262 16.1071 21.5758 14.1955 21.5758V21.5758C12.284 21.5758 10.7344 20.0262 10.7344 18.1146V13.4997Z" fill="white"/>
<path d="M10.7344 12.3462C10.7344 10.4346 12.284 8.88501 14.1955 8.88501V8.88501C16.1071 8.88501 17.6567 10.4346 17.6567 12.3462V12.3462C17.6567 14.2577 16.1071 15.8074 14.1955 15.8074V15.8074C12.284 15.8074 10.7344 14.2577 10.7344 12.3462V12.3462Z" fill="white"/>
<path d="M19.0029 8.885C19.0029 6.97345 20.5525 5.42383 22.4641 5.42383V5.42383C24.3757 5.42383 25.9253 6.97345 25.9253 8.885V18.1148C25.9253 20.0263 24.3757 21.576 22.4641 21.576V21.576C20.5525 21.576 19.0029 20.0263 19.0029 18.1148V8.885Z" fill="white"/>
<path d="M19.0029 8.885C19.0029 6.97345 20.5525 5.42383 22.4641 5.42383V5.42383C24.3757 5.42383 25.9253 6.97345 25.9253 8.885V8.885C25.9253 10.7966 24.3757 12.3462 22.4641 12.3462V12.3462C20.5525 12.3462 19.0029 10.7966 19.0029 8.885V8.885Z" fill="white"/>
<path d="M34.9783 21V5.27839H39.1564L43.0976 14.6683H43.4852L47.4049 5.27839H51.6475V21H48.6109V7.58279L48.9986 7.62586L44.7559 17.7911H41.6331L37.3689 7.62586L37.7781 7.58279V21H34.9783ZM61.0288 21V17.5326H60.5335V13.6776C60.5335 13.0028 60.3684 12.5003 60.0382 12.1701C59.7079 11.8398 59.1983 11.6747 58.5091 11.6747C58.1501 11.6747 57.7194 11.6819 57.2169 11.6963C56.7144 11.7106 56.2047 11.7321 55.6878 11.7609C55.1853 11.7752 54.733 11.7968 54.331 11.8255V9.28417C54.6612 9.25545 55.0345 9.22674 55.4509 9.19802C55.8673 9.16931 56.2908 9.15495 56.7216 9.15495C57.1666 9.14059 57.583 9.13341 57.9707 9.13341C59.1767 9.13341 60.1746 9.29135 60.9642 9.60721C61.7683 9.92308 62.3713 10.4184 62.7733 11.0932C63.1897 11.768 63.3979 12.651 63.3979 13.7422V21H61.0288ZM57.26 21.3015C56.4129 21.3015 55.6663 21.1508 55.0202 20.8492C54.3884 20.5477 53.8931 20.117 53.5342 19.5571C53.1896 18.9971 53.0173 18.3223 53.0173 17.5326C53.0173 16.6712 53.2255 15.9676 53.6418 15.4221C54.0726 14.8765 54.6684 14.4673 55.4294 14.1945C56.2047 13.9217 57.1092 13.7853 58.143 13.7853H60.8566V15.5728H58.0999C57.4107 15.5728 56.8795 15.7451 56.5062 16.0897C56.1473 16.4199 55.9678 16.8506 55.9678 17.3819C55.9678 17.9131 56.1473 18.3438 56.5062 18.6741C56.8795 19.0043 57.4107 19.1694 58.0999 19.1694C58.5163 19.1694 58.8967 19.0976 59.2413 18.954C59.6003 18.7961 59.8946 18.5377 60.1243 18.1787C60.3684 17.8054 60.5048 17.3029 60.5335 16.6712L61.2658 17.5111C61.194 18.3295 60.993 19.0186 60.6627 19.5786C60.3469 20.1385 59.9018 20.5693 59.3275 20.8708C58.7675 21.1579 58.0784 21.3015 57.26 21.3015ZM65.2584 21V9.3057H67.6274V14.2591H67.5628C67.5628 12.5792 67.9217 11.3086 68.6396 10.4471C69.3575 9.58568 70.4128 9.15495 71.8055 9.15495H72.2362V11.7609H71.4178C70.4128 11.7609 69.6303 12.0337 69.0704 12.5792C68.5248 13.1105 68.252 13.8858 68.252 14.9052V21H65.2584ZM81.0768 21L77.1571 15.5297H75.4127L80.3876 9.3057H83.5104L78.9231 15.0559L78.9877 13.5484L84.458 21H81.0768ZM72.8929 21V5.27839H75.8865V21H72.8929ZM89.6937 21.4092C88.6887 21.4092 87.8057 21.2369 87.0447 20.8923C86.2981 20.5477 85.6736 20.0883 85.171 19.514C84.6829 18.9253 84.3096 18.272 84.0512 17.5542C83.8071 16.8363 83.685 16.104 83.685 15.3574V14.9483C83.685 14.1729 83.8071 13.4263 84.0512 12.7085C84.3096 11.9762 84.6829 11.3301 85.171 10.7702C85.6736 10.1959 86.2909 9.74361 87.0232 9.41339C87.7554 9.0688 88.6025 8.89651 89.5645 8.89651C90.828 8.89651 91.8832 9.17649 92.7303 9.73643C93.5918 10.282 94.2379 11.0071 94.6686 11.9116C95.0994 12.8018 95.3147 13.7638 95.3147 14.7975V15.8743H84.9557V14.0437H93.441L92.515 14.9483C92.515 14.2017 92.4073 13.5627 92.1919 13.0315C91.9766 12.5003 91.6463 12.0911 91.2013 11.8039C90.7705 11.5168 90.2249 11.3732 89.5645 11.3732C88.904 11.3732 88.3441 11.524 87.8846 11.8255C87.4252 12.127 87.0734 12.5649 86.8294 13.1392C86.5996 13.6991 86.4848 14.374 86.4848 15.1636C86.4848 15.8959 86.5996 16.5491 86.8294 17.1234C87.0591 17.6834 87.4108 18.1285 87.8846 18.4587C88.3584 18.7746 88.9615 18.9325 89.6937 18.9325C90.4259 18.9325 91.0218 18.7889 91.4812 18.5018C91.9407 18.2003 92.235 17.8341 92.3642 17.4034H95.1209C94.9486 18.2074 94.6184 18.911 94.1302 19.514C93.6421 20.117 93.0175 20.5836 92.2565 20.9139C91.5099 21.2441 90.6557 21.4092 89.6937 21.4092ZM101.552 21.1508C100.475 21.1508 99.585 21.0144 98.8815 20.7416C98.1924 20.4544 97.6755 19.9806 97.3309 19.3202C96.9863 18.6453 96.814 17.7408 96.814 16.6066L96.8356 6.01063H99.6353L99.6138 16.8004C99.6138 17.3747 99.7645 17.8198 100.066 18.1357C100.382 18.4372 100.827 18.5879 101.401 18.5879H103.232V21.1508H101.552ZM94.9619 11.5024V9.3057H103.232V11.5024H94.9619ZM109.998 21.4092C108.605 21.4092 107.428 21.1866 106.466 20.7416C105.518 20.2965 104.793 19.6863 104.291 18.911C103.788 18.1213 103.537 17.2311 103.537 16.2404H106.531C106.531 16.6568 106.645 17.066 106.875 17.468C107.105 17.8557 107.471 18.1715 107.973 18.4156C108.49 18.6597 109.165 18.7817 109.998 18.7817C110.744 18.7817 111.369 18.6741 111.872 18.4587C112.374 18.2433 112.747 17.9634 112.991 17.6188C113.236 17.2598 113.358 16.8578 113.358 16.4127C113.358 15.8528 113.121 15.4077 112.647 15.0775C112.173 14.7329 111.441 14.5175 110.45 14.4314L109.072 14.3237C107.564 14.1945 106.358 13.7279 105.454 12.9238C104.564 12.1054 104.118 11.0286 104.118 9.69336C104.118 8.68833 104.355 7.82687 104.829 7.10899C105.303 6.37675 105.963 5.8168 106.81 5.42914C107.672 5.02713 108.677 4.82612 109.826 4.82612C111.017 4.82612 112.044 5.03431 112.905 5.45068C113.767 5.86705 114.434 6.45571 114.908 7.21667C115.382 7.96327 115.619 8.84626 115.619 9.86565H112.625C112.625 9.43492 112.518 9.04009 112.302 8.68115C112.101 8.30785 111.793 8.01352 111.376 7.79815C110.974 7.56843 110.457 7.45357 109.826 7.45357C109.223 7.45357 108.72 7.55407 108.318 7.75508C107.916 7.95609 107.615 8.22888 107.413 8.57346C107.212 8.91805 107.112 9.29135 107.112 9.69336C107.112 10.1815 107.291 10.6122 107.65 10.9855C108.009 11.3445 108.576 11.5527 109.352 11.6101L110.73 11.7393C111.85 11.8255 112.834 12.0624 113.681 12.45C114.528 12.8377 115.181 13.3617 115.64 14.0222C116.114 14.6826 116.351 15.4795 116.351 16.4127C116.351 17.4034 116.093 18.2792 115.576 19.0402C115.059 19.7868 114.32 20.3683 113.358 20.7846C112.41 21.201 111.29 21.4092 109.998 21.4092ZM124.65 21V17.5326H124.154V13.6776C124.154 13.0028 123.989 12.5003 123.659 12.1701C123.329 11.8398 122.819 11.6747 122.13 11.6747C121.771 11.6747 121.34 11.6819 120.838 11.6963C120.335 11.7106 119.826 11.7321 119.309 11.7609C118.806 11.7752 118.354 11.7968 117.952 11.8255V9.28417C118.282 9.25545 118.655 9.22674 119.072 9.19802C119.488 9.16931 119.912 9.15495 120.342 9.15495C120.788 9.14059 121.204 9.13341 121.592 9.13341C122.798 9.13341 123.795 9.29135 124.585 9.60721C125.389 9.92308 125.992 10.4184 126.394 11.0932C126.811 11.768 127.019 12.651 127.019 13.7422V21H124.65ZM120.881 21.3015C120.034 21.3015 119.287 21.1508 118.641 20.8492C118.009 20.5477 117.514 20.117 117.155 19.5571C116.81 18.9971 116.638 18.3223 116.638 17.5326C116.638 16.6712 116.846 15.9676 117.263 15.4221C117.693 14.8765 118.289 14.4673 119.05 14.1945C119.826 13.9217 120.73 13.7853 121.764 13.7853H124.477V15.5728H121.721C121.032 15.5728 120.5 15.7451 120.127 16.0897C119.768 16.4199 119.589 16.8506 119.589 17.3819C119.589 17.9131 119.768 18.3438 120.127 18.6741C120.5 19.0043 121.032 19.1694 121.721 19.1694C122.137 19.1694 122.518 19.0976 122.862 18.954C123.221 18.7961 123.515 18.5377 123.745 18.1787C123.989 17.8054 124.126 17.3029 124.154 16.6712L124.887 17.5111C124.815 18.3295 124.614 19.0186 124.284 19.5786C123.968 20.1385 123.523 20.5693 122.948 20.8708C122.388 21.1579 121.699 21.3015 120.881 21.3015ZM131.08 21L127.418 9.3057H130.498L134.008 21H131.08ZM131.963 21V18.5448H135.128V21H131.963ZM133.147 21L136.162 9.3057H139.048L135.882 21H133.147ZM139.618 25.6088V23.046H141.815C142.231 23.046 142.576 22.9885 142.849 22.8737C143.136 22.7732 143.373 22.6009 143.56 22.3568C143.746 22.1271 143.89 21.804 143.99 21.3877L147.135 9.3057H149.999L146.532 22.0337C146.302 22.9096 145.979 23.6059 145.562 24.1228C145.146 24.654 144.608 25.0345 143.947 25.2642C143.301 25.4939 142.497 25.6088 141.535 25.6088H139.618ZM143.258 20.7416V18.3726H145.756V20.7416H143.258ZM142.246 20.7416L138.455 9.3057H141.471L145.067 20.7416H142.246Z" fill="white"/>
</svg>
