<svg viewBox="0 0 115 27" fill="none" xmlns="http://www.w3.org/2000/svg">
<g clip-path="url(#clip0_88_293)">
<path d="M27.2283 0.0397949H15.4952C14.8956 0.0397949 14.5953 0.764728 15.0193 1.1887L26.0794 12.2489C26.5034 12.6728 27.2283 12.3726 27.2283 11.773V0.0397949Z" fill="white"/>
<path d="M20.8104 6.92334H4.02304C2.82385 6.92334 2.2233 8.3732 3.07125 9.22115L18.5126 24.6625C19.3605 25.5104 20.8104 24.9099 20.8104 23.7107V6.92334Z" fill="white"/>
<path fill-rule="evenodd" clip-rule="evenodd" d="M20.8103 15.7524V6.92334H11.9812C11.5893 9.20071 12.2035 11.6744 14.1314 13.6023C16.0592 15.5301 18.533 16.1444 20.8103 15.7524Z" fill="white"/>
</g>
<path d="M32.6125 16.4251C32.6125 19.0922 34.7573 20.907 38.1393 20.907C41.4938 20.907 43.831 19.2022 43.831 16.4526C43.831 14.3629 42.6762 13.318 40.394 12.7956L37.9468 12.2181C36.792 11.9432 36.1871 11.4483 36.1871 10.6784C36.1871 9.66099 36.957 9.05608 38.2768 9.05608C39.5691 9.05608 40.339 9.79847 40.3665 10.9533H43.5561C43.5286 8.31368 41.4663 6.55392 38.4143 6.55392C35.2797 6.55392 33.025 8.1487 33.025 10.8158C33.025 12.988 34.2073 14.1429 36.6545 14.6928L39.1017 15.2702C40.3115 15.5452 40.669 16.0401 40.669 16.7275C40.669 17.7174 39.8166 18.3498 38.2493 18.3498C36.7095 18.3498 35.8296 17.6074 35.8021 16.4251H32.6125Z" fill="white"/>
<path d="M49.286 20.5495V9.77098H51.9257V6.96636H49.286V2.73193H45.9315V6.96636H43.3193V9.77098H45.9315V20.5495H49.286Z" fill="white"/>
<path d="M56.254 20.907C58.3712 20.907 60.2134 19.9446 60.7909 18.5423L61.0383 20.5495H63.9804V12.3006C63.9804 8.53365 61.7257 6.55392 58.0687 6.55392C54.3842 6.55392 51.9646 8.47865 51.9646 11.4208H54.8242C54.8242 9.99095 55.924 9.16606 57.9037 9.16606C59.6085 9.16606 60.7084 9.90846 60.7084 11.7507V12.0532L56.6389 12.3556C53.4219 12.6031 51.6071 14.1704 51.6071 16.6725C51.6071 19.2297 53.3669 20.907 56.254 20.907ZM57.3538 18.3773C55.8415 18.3773 55.0166 17.7724 55.0166 16.5351C55.0166 15.4352 55.814 14.7478 57.9037 14.5553L60.7359 14.3354V15.0503C60.7359 17.14 59.416 18.3773 57.3538 18.3773Z" fill="white"/>
<path d="M74.0812 6.91137C73.5313 6.77388 73.0639 6.71889 72.5964 6.71889C70.7817 6.71889 69.4893 7.62627 68.9119 8.97359L68.7195 6.99386H65.5574V20.5495H68.9119V13.9504C68.9119 11.3108 70.4242 10.0184 72.8439 10.0184H74.0812V6.91137Z" fill="white"/>
<path d="M73.5884 16.4251C73.5884 19.0922 75.7332 20.907 79.1152 20.907C82.4697 20.907 84.8069 19.2022 84.8069 16.4526C84.8069 14.3629 83.6521 13.318 81.3699 12.7956L78.9227 12.2181C77.7679 11.9432 77.163 11.4483 77.163 10.6784C77.163 9.66099 77.9329 9.05608 79.2527 9.05608C80.545 9.05608 81.3149 9.79847 81.3424 10.9533H84.532C84.5045 8.31368 82.4422 6.55392 79.3902 6.55392C76.2556 6.55392 74.0009 8.1487 74.0009 10.8158C74.0009 12.988 75.1832 14.1429 77.6304 14.6928L80.0776 15.2702C81.2874 15.5452 81.6449 16.0401 81.6449 16.7275C81.6449 17.7174 80.7925 18.3498 79.2252 18.3498C77.6854 18.3498 76.8055 17.6074 76.778 16.4251H73.5884Z" fill="white"/>
<path d="M94.8538 6.96636V14.0879C94.8538 16.6725 93.8364 17.9099 91.7192 17.9099C89.8495 17.9099 88.8321 16.865 88.8321 14.2804V6.96636H85.4776V15.4627C85.4776 18.7898 87.3198 20.907 90.4544 20.907C92.2691 20.907 94.0289 20.0271 94.8538 18.7348L95.1013 20.5495H98.2083V6.96636H94.8538Z" fill="white"/>
<path d="M99.9546 24.2684H103.309V18.7348C104.161 20.1096 105.921 20.907 107.956 20.907C111.998 20.907 114.308 17.8274 114.308 13.593C114.308 9.33104 111.778 6.55392 107.956 6.55392C105.894 6.55392 104.107 7.46129 103.282 9.02858L103.062 6.96636H99.9546V24.2684ZM103.337 13.7579C103.337 11.3108 104.849 9.606 107.159 9.606C109.523 9.606 110.926 11.3383 110.926 13.7579C110.926 16.1776 109.523 17.8824 107.159 17.8824C104.849 17.8824 103.337 16.2051 103.337 13.7579Z" fill="white"/>
<defs>
<clipPath id="clip0_88_293">
<rect width="26.9206" height="26.9206" fill="white" transform="translate(0.307861 0.0397949)"/>
</clipPath>
</defs>
</svg>
