<svg viewBox="0 0 112 27" fill="none" xmlns="http://www.w3.org/2000/svg">
<g clip-path="url(#clip0_88_294)">
<path fill-rule="evenodd" clip-rule="evenodd" d="M27.4956 13.5001L18.5221 22.4736L9.54858 13.5001L18.5221 4.52661L27.4956 13.5001ZM14.0355 17.987L18.5222 13.5002V13.5001L14.0355 9.01339L13.5067 9.54216L17.4648 13.5002L13.5068 17.4582L14.0355 17.987Z" fill="white"/>
<path d="M9.54872 5.5844L1.63274 13.5004L9.54872 21.4164L13.5067 17.4584L14.0355 17.9871L9.54872 22.4739L0.575195 13.5004L9.54872 4.52686L14.0355 9.01362L13.5067 9.54239L9.54872 5.5844Z" fill="white"/>
</g>
<path d="M34.8343 17.8611C34.2959 17.8611 33.8329 17.6727 33.4452 17.2958C33.0683 16.9081 32.8799 16.4451 32.8799 15.9067V10.4472C32.8799 9.90879 33.0683 9.45115 33.4452 9.07426C33.8329 8.6866 34.2959 8.49277 34.8343 8.49277H40.4553C41.0045 8.49277 41.4675 8.6866 41.8444 9.07426C42.2321 9.45115 42.4259 9.90879 42.4259 10.4472V15.9067C42.4259 16.4451 42.2321 16.9081 41.8444 17.2958C41.4675 17.6727 41.0045 17.8611 40.4553 17.8611H34.8343ZM34.8343 16.5366H40.4553C40.6276 16.5366 40.773 16.4774 40.8914 16.359C41.0207 16.2297 41.0853 16.079 41.0853 15.9067V10.4472C41.0853 10.2749 41.0207 10.1295 40.8914 10.0111C40.773 9.88187 40.6276 9.81726 40.4553 9.81726H34.8343C34.662 9.81726 34.5113 9.88187 34.3821 10.0111C34.2636 10.1295 34.2044 10.2749 34.2044 10.4472V15.9067C34.2044 16.079 34.2636 16.2297 34.3821 16.359C34.5113 16.4774 34.662 16.5366 34.8343 16.5366Z" fill="white"/>
<path d="M48.5426 17.8611L43.3739 8.49277H44.9245L49.3179 16.5689L53.7114 8.49277H55.262L50.0771 17.8611H48.5426Z" fill="white"/>
<path d="M58.0849 17.8611C57.5464 17.8611 57.0834 17.6727 56.6958 17.2958C56.3189 16.9081 56.1304 16.4451 56.1304 15.9067V10.4472C56.1304 9.90879 56.3189 9.45115 56.6958 9.07426C57.0834 8.6866 57.5464 8.49277 58.0849 8.49277H63.7059C64.255 8.49277 64.7181 8.6866 65.095 9.07426C65.4826 9.45115 65.6765 9.90879 65.6765 10.4472V13.8392H57.4549V15.9067C57.4549 16.079 57.5141 16.2297 57.6326 16.359C57.7618 16.4774 57.9126 16.5366 58.0849 16.5366H65.6765V17.8611H58.0849ZM57.4549 12.5147H64.3358V10.4472C64.3358 10.2749 64.2712 10.1295 64.142 10.0111C64.0235 9.88187 63.8782 9.81726 63.7059 9.81726H58.0849C57.9126 9.81726 57.7618 9.88187 57.6326 10.0111C57.5141 10.1295 57.4549 10.2749 57.4549 10.4472V12.5147Z" fill="white"/>
<path d="M67.2513 17.8611V10.4472C67.2513 9.90879 67.4398 9.45115 67.8166 9.07426C68.2043 8.6866 68.6673 8.49277 69.2057 8.49277H74.4714V9.81726H69.2057C69.0334 9.81726 68.8827 9.88187 68.7535 10.0111C68.635 10.1295 68.5758 10.2749 68.5758 10.4472V17.8611H67.2513Z" fill="white"/>
<path d="M77.4712 17.8611C76.9328 17.8611 76.4697 17.6727 76.0821 17.2958C75.7052 16.9081 75.5168 16.4451 75.5168 15.9067V5.42383H76.8413V15.9067C76.8413 16.079 76.9005 16.2297 77.0189 16.359C77.1481 16.4774 77.2989 16.5366 77.4712 16.5366H79.0541V17.8611H77.4712Z" fill="white"/>
<path d="M82.1876 17.8611C81.6491 17.8611 81.1861 17.6727 80.7984 17.2958C80.4216 16.9081 80.2331 16.4451 80.2331 15.9067V12.5147H88.4385V10.4472C88.4385 10.2749 88.3739 10.1295 88.2447 10.0111C88.1262 9.88187 87.9809 9.81726 87.8086 9.81726H80.2331V8.49277H87.8086C88.3577 8.49277 88.8208 8.6866 89.1977 9.07426C89.5853 9.45115 89.7792 9.90879 89.7792 10.4472V17.8611H82.1876ZM82.1876 16.5366H88.4385V13.8392H81.5576V15.9067C81.5576 16.079 81.6168 16.2297 81.7353 16.359C81.8645 16.4774 82.0153 16.5366 82.1876 16.5366Z" fill="white"/>
<path d="M93.015 21.5762V20.2355H98.8622C99.0345 20.2355 99.1799 20.1709 99.2983 20.0417C99.4275 19.9232 99.4921 19.7779 99.4921 19.6056V17.8611H93.2412C92.7028 17.8611 92.2397 17.6727 91.8521 17.2958C91.4752 16.9081 91.2867 16.4451 91.2867 15.9067V8.52508H92.6112V15.9067C92.6112 16.079 92.6705 16.2297 92.7889 16.359C92.9181 16.4774 93.0689 16.5366 93.2412 16.5366H98.8622C99.0345 16.5366 99.1799 16.4774 99.2983 16.359C99.4275 16.2297 99.4921 16.079 99.4921 15.9067V8.52508H100.817V19.6056C100.817 20.1548 100.628 20.6178 100.251 20.9947C99.8744 21.3823 99.4114 21.5762 98.8622 21.5762H93.015Z" fill="white"/>
<path d="M104.396 17.8611C103.857 17.8611 103.394 17.6727 103.006 17.2958C102.63 16.9081 102.441 16.4451 102.441 15.9067V15.7775H103.766V15.9067C103.766 16.079 103.825 16.2297 103.943 16.359C104.072 16.4774 104.223 16.5366 104.396 16.5366H110.017C110.189 16.5366 110.334 16.4774 110.453 16.359C110.582 16.2297 110.646 16.079 110.646 15.9067V14.4691C110.646 14.2968 110.582 14.1515 110.453 14.033C110.334 13.9038 110.189 13.8392 110.017 13.8392H104.396C103.857 13.8392 103.394 13.6508 103.006 13.2739C102.63 12.8862 102.441 12.4232 102.441 11.8848V10.4472C102.441 9.90879 102.63 9.45115 103.006 9.07426C103.394 8.6866 103.857 8.49277 104.396 8.49277H110.017C110.566 8.49277 111.029 8.6866 111.406 9.07426C111.793 9.45115 111.987 9.90879 111.987 10.4472V10.5764H110.646V10.4472C110.646 10.2749 110.582 10.1295 110.453 10.0111C110.334 9.88187 110.189 9.81726 110.017 9.81726H104.396C104.223 9.81726 104.072 9.88187 103.943 10.0111C103.825 10.1295 103.766 10.2749 103.766 10.4472V11.8848C103.766 12.0571 103.825 12.2078 103.943 12.337C104.072 12.4555 104.223 12.5147 104.396 12.5147H110.017C110.566 12.5147 111.029 12.7085 111.406 13.0962C111.793 13.4731 111.987 13.9307 111.987 14.4691V15.9067C111.987 16.4451 111.793 16.9081 111.406 17.2958C111.029 17.6727 110.566 17.8611 110.017 17.8611H104.396Z" fill="white"/>
<defs>
<clipPath id="clip0_88_294">
<rect width="26.9206" height="26.9206" fill="white" transform="translate(0.575195 0.0397949)"/>
</clipPath>
</defs>
</svg>
