<svg viewBox="0 0 102 27" fill="none" xmlns="http://www.w3.org/2000/svg">
<path fill-rule="evenodd" clip-rule="evenodd" d="M11.1353 4.07796L11.1353 16.1922L4.40511 16.1922C3.66172 16.1922 3.05908 16.7949 3.05908 17.5382L3.05908 22.9224C3.05908 23.6658 3.66172 24.2684 4.40511 24.2684H9.78922C10.5326 24.2684 11.1353 23.6658 11.1353 22.9224V16.1922L23.2495 16.1922C23.9929 16.1922 24.5955 15.5896 24.5955 14.8462L24.5955 4.07796C24.5955 3.33457 23.9929 2.73193 23.2495 2.73193L12.4813 2.73193C11.7379 2.73193 11.1353 3.33457 11.1353 4.07796Z" fill="white"/>
<path d="M32.5596 21.5763V5.42393H36.5438C37.7642 5.42393 38.7334 5.79005 39.4512 6.52229C40.1691 7.24735 40.5281 8.20931 40.5281 9.40817V11.5618C40.5281 12.7535 40.1691 13.7155 39.4512 14.4477C38.7334 15.1799 37.7642 15.5461 36.5438 15.5461H35.467V21.5763H32.5596ZM35.467 12.6386H36.5438C36.8884 12.6386 37.154 12.5417 37.3407 12.3479C37.5273 12.1469 37.6206 11.8849 37.6206 11.5618V9.40817C37.6206 9.08513 37.5273 8.82669 37.3407 8.63286C37.154 8.43185 36.8884 8.33135 36.5438 8.33135H35.467V12.6386Z" fill="white"/>
<path d="M40.3331 21.5763L43.3912 5.42393H46.5356L49.5291 21.5763H46.5571L46.191 19.0565H43.6927L43.3051 21.5763H40.3331ZM44.1235 16.1491H45.7602L44.7696 9.34356H45.1572L44.1235 16.1491Z" fill="white"/>
<path d="M51.9737 21.5763V14.2539L48.5925 5.42393H51.5645L53.8473 12.251H53.029L55.2472 5.42393H58.2193L54.8811 14.2539V21.5763H51.9737Z" fill="white"/>
<path d="M62.6854 21.9209C61.5152 21.9209 60.5748 21.5547 59.8641 20.8225C59.1606 20.0903 58.8088 19.1283 58.8088 17.9366V17.2905H60.8548V17.9366C60.8548 18.5181 61.0199 18.9883 61.3501 19.3472C61.6803 19.699 62.1254 19.8749 62.6854 19.8749C63.2453 19.8749 63.6904 19.699 64.0206 19.3472C64.3509 18.9883 64.516 18.5181 64.516 17.9366V16.5798C64.516 16.2496 64.5052 15.9912 64.4837 15.8045C64.4621 15.6107 64.3975 15.4563 64.2898 15.3415C64.1822 15.2266 64.0027 15.1189 63.7514 15.0184C63.5002 14.9107 63.1448 14.7851 62.6854 14.6415C61.7162 14.3328 60.966 14.0744 60.4348 13.8662C59.9036 13.6509 59.5231 13.4247 59.2934 13.1878C59.0637 12.9437 58.9237 12.6279 58.8734 12.2402C58.8303 11.8526 58.8088 11.3249 58.8088 10.6573V9.06359C58.8088 7.86473 59.1606 6.90277 59.8641 6.1777C60.5748 5.44547 61.5152 5.07935 62.6854 5.07935C63.8627 5.07935 64.8031 5.44547 65.5066 6.1777C66.2102 6.90277 66.5619 7.86473 66.5619 9.06359V9.70968H64.516V9.06359C64.516 8.48211 64.3509 8.01548 64.0206 7.66372C63.6904 7.30478 63.2453 7.12531 62.6854 7.12531C62.1254 7.12531 61.6803 7.30478 61.3501 7.66372C61.0199 8.01548 60.8548 8.48211 60.8548 9.06359V10.6573C60.8548 10.9803 60.8655 11.2388 60.8871 11.4326C60.9158 11.6192 60.9804 11.7736 61.0809 11.8956C61.1886 12.0105 61.3681 12.1182 61.6193 12.2187C61.8778 12.3192 62.2331 12.4448 62.6854 12.5956C63.6545 12.9043 64.4047 13.1627 64.9359 13.3709C65.4672 13.5791 65.8476 13.8052 66.0774 14.0493C66.3071 14.2862 66.4435 14.5985 66.4866 14.9861C66.5368 15.3738 66.5619 15.905 66.5619 16.5798V17.9366C66.5619 19.1283 66.2102 20.0903 65.5066 20.8225C64.8031 21.5547 63.8627 21.9209 62.6854 21.9209Z" fill="white"/>
<path d="M76.3605 17.2905V17.9366C76.3605 19.1283 76.0088 20.0903 75.3052 20.8225C74.6017 21.5547 73.6613 21.9209 72.484 21.9209C71.3138 21.9209 70.3734 21.5547 69.6627 20.8225C68.9592 20.0903 68.6074 19.1283 68.6074 17.9366V9.06359C68.6074 7.86473 68.9592 6.90277 69.6627 6.1777C70.3734 5.44547 71.3138 5.07935 72.484 5.07935C73.6613 5.07935 74.6017 5.44547 75.3052 6.1777C76.0088 6.90277 76.3605 7.86473 76.3605 9.06359V9.70968H74.3146V9.06359C74.3146 8.48211 74.1494 8.01548 73.8192 7.66372C73.489 7.30478 73.0439 7.12531 72.484 7.12531C71.924 7.12531 71.4789 7.30478 71.1487 7.66372C70.8185 8.01548 70.6534 8.48211 70.6534 9.06359V17.9366C70.6534 18.5181 70.8185 18.9883 71.1487 19.3472C71.4789 19.699 71.924 19.8749 72.484 19.8749C73.0439 19.8749 73.489 19.699 73.8192 19.3472C74.1494 18.9883 74.3146 18.5181 74.3146 17.9366V17.2905H76.3605Z" fill="white"/>
<path d="M77.0795 21.5763L80.4392 5.42393H82.6359L85.9633 21.5763H83.8635L83.282 18.5827H79.7715L79.1793 21.5763H77.0795ZM80.1161 16.5367H82.9374L81.3868 8.27751H81.6883L80.1161 16.5367Z" fill="white"/>
<path d="M89.6085 5.42393V19.5303H93.7004V21.5763H87.5625V5.42393H89.6085Z" fill="white"/>
<path d="M101.787 5.42393V7.46989H97.264V12.3156H101.205V14.3616H97.264V19.5303H101.787V21.5763H95.218V5.42393H101.787Z" fill="white"/>
</svg>
