<svg viewBox="0 0 113 27" fill="none" xmlns="http://www.w3.org/2000/svg">
<path fill-rule="evenodd" clip-rule="evenodd" d="M3.26465 11.5793C3.26465 5.91825 7.8538 1.3291 13.5148 1.3291C19.1758 1.3291 23.765 5.91825 23.765 11.5793C23.765 15.7468 21.2778 19.3334 17.7069 20.9358L14.5956 25.1272C14.0574 25.8521 12.9722 25.8521 12.434 25.1272L9.32269 20.9358C5.75177 19.3334 3.26465 15.7468 3.26465 11.5793ZM11.5376 8.17232C11.5376 7.08033 12.4228 6.19509 13.5148 6.19509C14.6068 6.19509 15.492 7.08033 15.492 8.17232C15.492 9.26432 14.6068 10.1496 13.5148 10.1496C12.4228 10.1496 11.5376 9.26432 11.5376 8.17232ZM11.2308 11.952C11.414 11.4024 11.9284 11.0317 12.5078 11.0317H14.5219C15.1013 11.0317 15.6156 11.4024 15.7988 11.9521L16.8787 15.1917C17.1693 16.0633 16.5205 16.9634 15.6018 16.9634H11.4279C10.5091 16.9634 9.86039 16.0633 10.1509 15.1917L11.2308 11.952Z" fill="white"/>
<path d="M38.9923 14.0492L38.0016 12.8432C38.8774 12.7714 39.5809 12.556 40.1122 12.1971C40.6434 11.8382 41.0311 11.3931 41.2751 10.8618C41.5192 10.3306 41.6413 9.77784 41.6413 9.20353C41.6413 8.62923 41.4977 8.11235 41.2105 7.65291C40.9234 7.17911 40.4711 6.81299 39.8537 6.55455C39.2364 6.28175 38.4252 6.14536 37.4201 6.14536C36.8602 6.14536 36.2715 6.22432 35.6541 6.38226C35.0511 6.54019 34.484 6.79863 33.9527 7.15757C33.4359 7.51651 33.0123 7.99031 32.6821 8.57897C32.3519 9.15328 32.1868 9.8568 32.1868 10.6895C32.1868 11.0485 32.2298 11.3787 32.316 11.6802C32.4021 11.9817 32.5457 12.3335 32.7467 12.7355C32.5888 12.8647 32.4093 12.9652 32.2083 13.037C32.0073 13.0945 31.7991 13.1232 31.5837 13.1232C31.2104 13.1232 30.873 13.0227 30.5715 12.8217C30.2844 12.6206 30.0618 12.3407 29.9039 11.9817C29.746 11.6084 29.667 11.1849 29.667 10.7111C29.667 9.8927 29.868 9.13892 30.27 8.44976C30.6864 7.74623 31.2679 7.12885 32.0145 6.59762C32.7611 6.06639 33.6225 5.65002 34.5988 5.34851C35.5895 5.047 36.6663 4.89624 37.8293 4.89624C39.2938 4.89624 40.4927 5.08289 41.4259 5.45619C42.3735 5.82949 43.0698 6.32483 43.5149 6.9422C43.9744 7.55958 44.2041 8.24875 44.2041 9.0097C44.2041 9.67015 44.0749 10.2804 43.8164 10.8403C43.558 11.4003 43.1847 11.8956 42.6965 12.3263C42.2227 12.757 41.67 13.1232 41.0382 13.4247C40.4065 13.7118 39.7245 13.92 38.9923 14.0492ZM33.8881 19.8856C33.6584 19.8856 33.4215 19.8497 33.1774 19.7779C32.9334 19.7061 32.7395 19.5913 32.596 19.4333C32.7539 19.3041 32.8975 19.1318 33.0267 18.9165C33.1703 18.7011 33.2851 18.4499 33.3713 18.1627C33.4718 17.8755 33.5579 17.5669 33.6297 17.2366L35.1803 9.33275C35.2808 8.84459 35.4029 8.4354 35.5464 8.10517C35.7044 7.77495 35.9197 7.53087 36.1925 7.37293C36.4797 7.215 36.8458 7.13603 37.2909 7.13603C37.6929 7.13603 38.0088 7.215 38.2385 7.37293C38.4826 7.53087 38.6262 7.72469 38.6692 7.95442C38.4395 8.06928 38.2529 8.23439 38.1093 8.44976C37.9801 8.65076 37.8867 8.88048 37.8293 9.13892C37.7719 9.383 37.7073 9.64862 37.6355 9.93577L35.9772 18.0766C35.9054 18.4786 35.769 18.816 35.568 19.0888C35.367 19.3472 35.1229 19.541 34.8357 19.6702C34.5629 19.8138 34.2471 19.8856 33.8881 19.8856ZM43.2565 22.1039C42.7971 22.1039 42.3807 22.0034 42.0074 21.8024C41.6484 21.6014 41.2895 21.1706 40.9306 20.5102C40.787 20.2374 40.629 19.8641 40.4568 19.3903C40.2845 18.9165 40.0978 18.3852 39.8968 17.7966C39.7102 17.2079 39.5092 16.6121 39.2938 16.0091C39.0784 15.406 38.8631 14.8317 38.6477 14.2861C38.4323 13.7405 38.217 13.2596 38.0016 12.8432L40.0906 13.7047C40.4065 13.92 40.7008 14.2861 40.9736 14.803C41.2464 15.3055 41.512 15.8798 41.7705 16.5259C42.0433 17.1577 42.3304 17.7822 42.6319 18.3996C42.9334 19.017 43.2709 19.5626 43.6442 20.0364C44.0175 20.5102 44.4482 20.826 44.9363 20.984C44.8215 21.3286 44.6205 21.6014 44.3333 21.8024C44.0462 22.0034 43.6872 22.1039 43.2565 22.1039Z" fill="white"/>
<path d="M47.1861 20.0148C46.4395 20.0148 45.8221 19.9 45.3339 19.6702C44.8601 19.4405 44.4868 19.139 44.214 18.7657C43.9412 18.3781 43.7474 17.9617 43.6325 17.5166C43.532 17.0572 43.4818 16.6121 43.4818 16.1813C43.4818 15.205 43.5966 14.2431 43.8264 13.2955C44.0704 12.3479 44.4366 11.4864 44.9247 10.7111C45.4272 9.93577 46.059 9.31839 46.8199 8.85895C47.5952 8.3995 48.5213 8.16978 49.5981 8.16978C50.3591 8.16978 50.9765 8.28464 51.4503 8.51437C51.9241 8.74409 52.2974 9.05278 52.5702 9.44043C52.8573 9.81373 53.0512 10.2301 53.1517 10.6895C53.2522 11.1346 53.3024 11.5654 53.3024 11.9817C53.3024 12.9581 53.1804 13.9272 52.9363 14.8892C52.7066 15.8368 52.3405 16.6982 51.8379 17.4735C51.3498 18.2488 50.718 18.8662 49.9427 19.3257C49.1818 19.7851 48.2629 20.0148 47.1861 20.0148ZM47.5952 18.7226C48.026 18.7226 48.4136 18.5791 48.7582 18.2919C49.1028 18.0048 49.4043 17.6171 49.6627 17.1289C49.9212 16.6264 50.1294 16.0737 50.2873 15.4706C50.4596 14.8533 50.5888 14.2215 50.675 13.5754C50.7611 12.9293 50.8042 12.3048 50.8042 11.7018C50.8042 11.0413 50.6893 10.5029 50.4596 10.0865C50.2299 9.67015 49.8135 9.46197 49.2105 9.46197C48.7798 9.46197 48.3849 9.60555 48.026 9.8927C47.667 10.1799 47.3583 10.5675 47.0999 11.0557C46.8558 11.5438 46.6476 12.0966 46.4754 12.714C46.3031 13.317 46.1738 13.9487 46.0877 14.6092C46.0159 15.2553 45.98 15.8798 45.98 16.4829C45.98 17.1289 46.0949 17.6674 46.3246 18.0981C46.5687 18.5145 46.9922 18.7226 47.5952 18.7226Z" fill="white"/>
<path d="M57.2182 20.0148C56.4716 20.0148 55.8542 19.9 55.366 19.6702C54.8922 19.4405 54.5189 19.139 54.2461 18.7657C53.9733 18.3781 53.7795 17.9617 53.6647 17.5166C53.5642 17.0572 53.5139 16.6121 53.5139 16.1813C53.5139 15.205 53.6288 14.2431 53.8585 13.2955C54.1026 12.3479 54.4687 11.4864 54.9568 10.7111C55.4594 9.93577 56.0911 9.31839 56.8521 8.85895C57.6274 8.3995 58.5534 8.16978 59.6303 8.16978C60.3912 8.16978 61.0086 8.28464 61.4824 8.51437C61.9562 8.74409 62.3295 9.05278 62.6023 9.44043C62.8894 9.81373 63.0833 10.2301 63.1838 10.6895C63.2843 11.1346 63.3345 11.5654 63.3345 11.9817C63.3345 12.9581 63.2125 13.9272 62.9684 14.8892C62.7387 15.8368 62.3726 16.6982 61.8701 17.4735C61.3819 18.2488 60.7502 18.8662 59.9748 19.3257C59.2139 19.7851 58.295 20.0148 57.2182 20.0148ZM57.6274 18.7226C58.0581 18.7226 58.4458 18.5791 58.7903 18.2919C59.1349 18.0048 59.4364 17.6171 59.6949 17.1289C59.9533 16.6264 60.1615 16.0737 60.3194 15.4706C60.4917 14.8533 60.6209 14.2215 60.7071 13.5754C60.7932 12.9293 60.8363 12.3048 60.8363 11.7018C60.8363 11.0413 60.7214 10.5029 60.4917 10.0865C60.262 9.67015 59.8456 9.46197 59.2426 9.46197C58.8119 9.46197 58.417 9.60555 58.0581 9.8927C57.6992 10.1799 57.3905 10.5675 57.132 11.0557C56.888 11.5438 56.6798 12.0966 56.5075 12.714C56.3352 13.317 56.206 13.9487 56.1198 14.6092C56.048 15.2553 56.0121 15.8798 56.0121 16.4829C56.0121 17.1289 56.127 17.6674 56.3567 18.0981C56.6008 18.5145 57.0243 18.7226 57.6274 18.7226Z" fill="white"/>
<path d="M77.4801 20.0148C77.035 20.0148 76.6761 19.8856 76.4033 19.6272C76.1449 19.3831 76.0156 18.9739 76.0156 18.3996C76.0156 18.0837 76.0587 17.6745 76.1448 17.172C76.2454 16.6695 76.3602 16.1383 76.4894 15.5783C76.6187 15.004 76.7479 14.4369 76.8771 13.8769C77.0063 13.3026 77.114 12.7929 77.2001 12.3479C77.3006 11.8884 77.3509 11.5366 77.3509 11.2926C77.3509 10.8188 77.2217 10.4598 76.9632 10.2157C76.7192 9.95731 76.3746 9.82809 75.9295 9.82809C75.4844 9.82809 75.0967 9.94295 74.7665 10.1727C74.4506 10.4024 74.1779 10.7039 73.9481 11.0772C73.7328 11.4505 73.5533 11.8597 73.4097 12.3048C73.2661 12.7355 73.1585 13.1662 73.0867 13.597L71.9237 19.5841L69.4685 19.8425L70.5669 14.3938C70.61 14.1928 70.6602 13.9559 70.7177 13.6831C70.7751 13.4103 70.8253 13.1303 70.8684 12.8432C70.9258 12.556 70.9689 12.2832 70.9976 12.0248C71.0407 11.752 71.0622 11.5151 71.0622 11.3141C71.0622 10.8403 70.9402 10.4742 70.6961 10.2157C70.4664 9.95731 70.129 9.82809 69.6839 9.82809C69.2388 9.82809 68.8584 9.94295 68.5425 10.1727C68.241 10.388 67.9825 10.6824 67.7672 11.0557C67.5662 11.4146 67.4011 11.8166 67.2718 12.2617C67.1426 12.6924 67.0349 13.1375 66.9488 13.597L65.7858 19.5841L63.3307 19.8425L65.5274 8.60051L67.5733 8.34207L67.3149 10.2804C67.6882 9.54812 68.1764 9.01688 68.7794 8.68666C69.3824 8.34207 70.0716 8.16978 70.8469 8.16978C71.6078 8.16978 72.1893 8.33489 72.5913 8.66512C72.9934 8.98099 73.259 9.46915 73.3882 10.1296C73.7758 9.42607 74.2927 8.92356 74.9388 8.62205C75.5849 8.32054 76.2669 8.16978 76.9848 8.16978C77.9037 8.16978 78.5928 8.3995 79.0523 8.85895C79.5117 9.30404 79.7414 9.93577 79.7414 10.7542C79.7414 11.1562 79.6984 11.6228 79.6122 12.154C79.5261 12.6853 79.4184 13.2524 79.2892 13.8554C79.16 14.4441 79.0307 15.0184 78.9015 15.5783C78.7723 16.1383 78.6574 16.648 78.5569 17.1074C78.4708 17.5669 78.4277 17.9258 78.4277 18.1842C78.4277 18.3852 78.4708 18.5647 78.5569 18.7226C78.6431 18.8662 78.8154 18.9524 79.0738 18.9811C78.9877 19.34 78.7867 19.5985 78.4708 19.7564C78.1693 19.9287 77.8391 20.0148 77.4801 20.0148Z" fill="white"/>
<path d="M83.0895 20.0148C82.3573 20.0148 81.7614 19.8425 81.302 19.498C80.8569 19.139 80.5267 18.658 80.3113 18.055C80.1103 17.4376 80.0098 16.7341 80.0098 15.9444C80.0098 14.882 80.1534 13.8841 80.4405 12.9509C80.7277 12.0033 81.1369 11.1705 81.6681 10.4526C82.2137 9.73476 82.8454 9.17482 83.5633 8.7728C84.2812 8.37079 85.0709 8.16978 85.9323 8.16978C86.6358 8.16978 87.3753 8.32054 88.1506 8.62205L90.3258 8.34207L88.6028 17.3443C88.5885 17.4735 88.567 17.6243 88.5382 17.7966C88.5095 17.9689 88.4952 18.1196 88.4952 18.2488C88.4952 18.4642 88.5454 18.6365 88.6459 18.7657C88.7608 18.8949 88.9331 18.9667 89.1628 18.9811C89.091 19.2252 88.969 19.4262 88.7967 19.5841C88.6387 19.7277 88.4521 19.8354 88.2367 19.9072C88.0357 19.9789 87.806 20.0148 87.5476 20.0148C87.1599 20.0148 86.8297 19.9072 86.5569 19.6918C86.2841 19.4908 86.1262 19.1893 86.0831 18.7873C85.7098 19.1462 85.2647 19.4405 84.7478 19.6702C84.2453 19.9 83.6925 20.0148 83.0895 20.0148ZM84.0371 18.7226C84.5827 18.7226 85.0206 18.5432 85.3508 18.1842C85.6954 17.8253 85.9682 17.3802 86.1692 16.849C86.3702 16.3034 86.521 15.7793 86.6215 15.2768L87.5691 10.1296C87.2819 9.89988 86.9804 9.73476 86.6646 9.63426C86.3631 9.5194 86.0831 9.46197 85.8246 9.46197C85.3796 9.46197 84.9775 9.59119 84.6186 9.84963C84.274 10.1081 83.9653 10.4598 83.6925 10.9049C83.4341 11.35 83.2116 11.8669 83.0249 12.4555C82.8526 13.0442 82.7234 13.6759 82.6373 14.3507C82.5511 15.0112 82.508 15.6788 82.508 16.3536C82.508 17.0141 82.6157 17.574 82.8311 18.0335C83.0464 18.4929 83.4485 18.7226 84.0371 18.7226Z" fill="white"/>
<path d="M92.2176 20.0364C91.8156 20.0364 91.4638 19.9072 91.1623 19.6487C90.8608 19.3903 90.7101 19.017 90.7101 18.5288C90.7101 18.2417 90.7531 17.8397 90.8393 17.3228C90.9254 16.7915 91.0259 16.2316 91.1408 15.6429C91.2556 15.0543 91.3705 14.4943 91.4854 13.9631C91.6146 13.4175 91.7079 12.9796 91.7653 12.6494L92.3899 9.56965H90.8608L90.947 8.92356C91.6361 8.66512 92.3181 8.32054 92.9929 7.88981C93.6677 7.45908 94.2636 6.98528 94.7804 6.4684H95.4481L95.0173 8.60051H96.6972L96.5034 9.56965H94.802L93.316 16.892C93.2729 17.1218 93.237 17.33 93.2083 17.5166C93.1796 17.6889 93.158 17.854 93.1437 18.0119C93.1293 18.3996 93.2011 18.6724 93.359 18.8303C93.517 18.9739 93.8041 19.0026 94.2205 18.9165C94.0913 19.1893 93.9262 19.4046 93.7252 19.5626C93.5385 19.7205 93.316 19.8354 93.0575 19.9072C92.7991 19.9933 92.5191 20.0364 92.2176 20.0364Z" fill="white"/>
<path d="M99.2415 20.0148C98.4231 20.0148 97.7124 19.8641 97.1094 19.5626C96.5207 19.2467 96.0685 18.7729 95.7526 18.1412C95.4367 17.5094 95.2788 16.7126 95.2788 15.7506C95.2788 14.8461 95.4009 13.9487 95.6449 13.0586C95.9034 12.154 96.2838 11.3356 96.7864 10.6034C97.2889 9.87116 97.9278 9.2825 98.7031 8.83741C99.4928 8.39233 100.419 8.16978 101.481 8.16978C102.041 8.16978 102.544 8.24875 102.989 8.40668C103.434 8.56462 103.786 8.82305 104.044 9.182C104.303 9.54094 104.432 10.0291 104.432 10.6465C104.432 11.4792 104.181 12.1827 103.678 12.757C103.19 13.317 102.537 13.7477 101.718 14.0492C100.9 14.3364 99.9953 14.48 99.0046 14.48C98.818 14.48 98.6098 14.48 98.3801 14.48C98.1647 14.4656 97.9852 14.4512 97.8417 14.4369C97.8273 14.6666 97.8129 14.8963 97.7986 15.1261C97.7842 15.3414 97.777 15.5424 97.777 15.7291C97.777 16.5044 97.9206 17.1146 98.2078 17.5597C98.4949 17.9904 99.019 18.2058 99.7799 18.2058C100.397 18.2058 100.95 18.0622 101.438 17.775C101.926 17.4735 102.307 17.05 102.58 16.5044C102.781 16.5618 102.917 16.6767 102.989 16.849C103.061 17.0213 103.097 17.2007 103.097 17.3874C103.097 17.8181 102.946 18.2345 102.644 18.6365C102.343 19.0385 101.905 19.3687 101.331 19.6272C100.756 19.8856 100.06 20.0148 99.2415 20.0148ZM97.9924 13.3816C98.4806 13.3816 98.9615 13.3314 99.4353 13.2308C99.9235 13.1303 100.369 12.9724 100.771 12.757C101.173 12.5273 101.488 12.2402 101.718 11.8956C101.962 11.5366 102.084 11.1203 102.084 10.6465C102.084 10.2301 101.984 9.92141 101.783 9.72041C101.596 9.50504 101.323 9.39736 100.964 9.39736C100.562 9.39736 100.189 9.52658 99.8445 9.78502C99.5143 10.0291 99.2272 10.3521 98.9831 10.7542C98.739 11.1562 98.5308 11.5869 98.3585 12.0463C98.2006 12.5058 98.0786 12.9509 97.9924 13.3816Z" fill="white"/>
<path d="M106.834 20.0579C106.374 20.0579 105.922 20.0077 105.477 19.9072C105.046 19.821 104.651 19.6846 104.292 19.498C103.934 19.3113 103.646 19.0744 103.431 18.7873C103.23 18.5001 103.13 18.1699 103.13 17.7966C103.13 17.3802 103.237 17.0572 103.453 16.8274C103.668 16.5977 103.919 16.4326 104.206 16.3321C104.508 16.2172 104.795 16.1598 105.068 16.1598C105.226 16.1598 105.384 16.1813 105.542 16.2244C105.7 16.2531 105.829 16.3249 105.929 16.4398C105.857 16.6408 105.793 16.8346 105.735 17.0213C105.678 17.1936 105.649 17.3946 105.649 17.6243C105.664 17.9832 105.807 18.2776 106.08 18.5073C106.353 18.7226 106.726 18.8303 107.2 18.8303C107.717 18.8303 108.148 18.6939 108.492 18.4211C108.851 18.134 109.031 17.7679 109.031 17.3228C109.031 16.9495 108.93 16.6193 108.729 16.3321C108.528 16.0306 108.262 15.7578 107.932 15.5137C107.616 15.2553 107.286 15.004 106.941 14.7599C106.554 14.4871 106.173 14.2 105.8 13.8985C105.427 13.5826 105.118 13.2308 104.874 12.8432C104.644 12.4412 104.529 11.9674 104.529 11.4218C104.529 10.8906 104.666 10.4239 104.939 10.0219C105.211 9.60555 105.57 9.26096 106.015 8.98817C106.46 8.71537 106.956 8.51436 107.501 8.38515C108.061 8.24157 108.614 8.16978 109.16 8.16978C109.662 8.16978 110.158 8.23439 110.646 8.36361C111.148 8.49283 111.565 8.71537 111.895 9.03124C112.225 9.33275 112.383 9.74912 112.369 10.2804C112.369 10.8403 112.189 11.271 111.83 11.5725C111.486 11.8741 111.105 12.0248 110.689 12.0248C110.531 12.0248 110.359 12.0104 110.172 11.9817C109.985 11.9387 109.82 11.8597 109.677 11.7448C109.777 11.5582 109.849 11.3644 109.892 11.1633C109.949 10.9623 109.978 10.7613 109.978 10.5603C109.978 10.187 109.849 9.89988 109.59 9.69887C109.346 9.48351 108.995 9.37582 108.535 9.37582C108.076 9.37582 107.681 9.50504 107.351 9.76348C107.035 10.0076 106.877 10.3521 106.877 10.7972C106.877 11.1131 106.956 11.4003 107.114 11.6587C107.272 11.9171 107.48 12.1612 107.738 12.3909C107.997 12.6206 108.277 12.8432 108.578 13.0586C109.023 13.3601 109.461 13.6759 109.892 14.0062C110.337 14.322 110.703 14.6881 110.99 15.1045C111.292 15.5209 111.435 16.0306 111.421 16.6336C111.421 17.3371 111.199 17.9473 110.753 18.4642C110.323 18.9667 109.756 19.3544 109.052 19.6272C108.349 19.9143 107.609 20.0579 106.834 20.0579Z" fill="white"/>
</svg>
